solid
facet normal -1.0 0.0 0.0
 outer loop
  vertex 50.00000000000023 50.0 99840.0
  vertex 50.00000000000023 0.0 99840.0
  vertex 50.00000000000023 0.0 102435.0
 endloop
endfacet
facet normal -1.0 -0.0 -0.0
 outer loop
  vertex 50.00000000000023 50.0 102435.0
  vertex 50.00000000000023 50.0 99840.0
  vertex 50.00000000000023 0.0 102435.0
 endloop
endfacet
facet normal 1.0 0.0 0.0
 outer loop
  vertex 2850.0000000000014 0.0 102435.0
  vertex 2850.0000000000014 0.0 99840.0
  vertex 2850.0000000000014 50.0 99840.0
 endloop
endfacet
facet normal 1.0 -0.0 0.0
 outer loop
  vertex 2850.0000000000014 0.0 102435.0
  vertex 2850.0000000000014 50.0 99840.0
  vertex 2850.0000000000014 50.0 102435.0
 endloop
endfacet
facet normal 0.0 0.0 -1.0
 outer loop
  vertex 2850.0000000000014 0.0 99840.0
  vertex 50.00000000000023 0.0 99840.0
  vertex 50.00000000000023 50.0 99840.0
 endloop
endfacet
facet normal 0.0 0.0 -1.0
 outer loop
  vertex 2850.0000000000014 0.0 99840.0
  vertex 50.00000000000023 50.0 99840.0
  vertex 2850.0000000000014 50.0 99840.0
 endloop
endfacet
facet normal 0.0 0.0 1.0
 outer loop
  vertex 50.00000000000023 50.0 102435.0
  vertex 50.00000000000023 0.0 102435.0
  vertex 2850.0000000000014 0.0 102435.0
 endloop
endfacet
facet normal 0.0 0.0 1.0
 outer loop
  vertex 2850.0000000000014 50.0 102435.0
  vertex 50.00000000000023 50.0 102435.0
  vertex 2850.0000000000014 0.0 102435.0
 endloop
endfacet
facet normal -1.0 0.0 0.0
 outer loop
  vertex 2800.0000000000005 9.020562075079397e-14 99955.0
  vertex 2800.0000000000005 9.020562075079397e-14 102400.0
  vertex 2800.0000000000005 50.000000000000135 102400.0
 endloop
endfacet
facet normal -1.0 0.0 0.0
 outer loop
  vertex 2800.0000000000005 9.020562075079397e-14 99955.0
  vertex 2800.0000000000005 50.000000000000135 102400.0
  vertex 2800.0000000000005 50.000000000000135 99955.0
 endloop
endfacet
facet normal 0.0 0.0 1.0
 outer loop
  vertex 1800.0000000000005 9.020562075079397e-14 99955.0
  vertex 2800.0000000000005 9.020562075079397e-14 99955.0
  vertex 2800.0000000000005 50.000000000000135 99955.0
 endloop
endfacet
facet normal 0.0 0.0 1.0
 outer loop
  vertex 1800.0000000000005 9.020562075079397e-14 99955.0
  vertex 2800.0000000000005 50.000000000000135 99955.0
  vertex 1800.0000000000005 50.000000000000135 99955.0
 endloop
endfacet
facet normal 1.0 0.0 0.0
 outer loop
  vertex 1800.0000000000005 9.020562075079397e-14 102400.0
  vertex 1800.0000000000005 9.020562075079397e-14 99955.0
  vertex 1800.0000000000005 50.000000000000135 99955.0
 endloop
endfacet
facet normal 1.0 -0.0 0.0
 outer loop
  vertex 1800.0000000000005 9.020562075079397e-14 102400.0
  vertex 1800.0000000000005 50.000000000000135 99955.0
  vertex 1800.0000000000005 50.000000000000135 102400.0
 endloop
endfacet
facet normal 0.0 0.0 -1.0
 outer loop
  vertex 2800.0000000000005 9.020562075079397e-14 102400.0
  vertex 1800.0000000000005 9.020562075079397e-14 102400.0
  vertex 1800.0000000000005 50.000000000000135 102400.0
 endloop
endfacet
facet normal 0.0 0.0 -1.0
 outer loop
  vertex 2800.0000000000005 9.020562075079397e-14 102400.0
  vertex 1800.0000000000005 50.000000000000135 102400.0
  vertex 2800.0000000000005 50.000000000000135 102400.0
 endloop
endfacet
facet normal 0.0 -1.0 -2.577303450022685e-15
 outer loop
  vertex 2850.0000000000014 0.0 102435.0
  vertex 1800.0000000000005 9.020562075079397e-14 102400.0
  vertex 2800.0000000000005 9.020562075079397e-14 102400.0
 endloop
endfacet
facet normal 5.1546069000453686e-17 -1.0 0.0
 outer loop
  vertex 1800.0000000000005 9.020562075079397e-14 99955.0
  vertex 50.00000000000023 0.0 102435.0
  vertex 50.00000000000023 0.0 99840.0
 endloop
endfacet
facet normal 5.1546069000453686e-17 -1.0 0.0
 outer loop
  vertex 1800.0000000000005 9.020562075079397e-14 99955.0
  vertex 1800.0000000000005 9.020562075079397e-14 102400.0
  vertex 50.00000000000023 0.0 102435.0
 endloop
endfacet
facet normal -1.8041124150158466e-15 -1.0 0.0
 outer loop
  vertex 2800.0000000000005 9.020562075079397e-14 99955.0
  vertex 2850.0000000000014 0.0 102435.0
  vertex 2800.0000000000005 9.020562075079397e-14 102400.0
 endloop
endfacet
facet normal 0.0 -1.0 7.843967021808171e-16
 outer loop
  vertex 2850.0000000000014 0.0 99840.0
  vertex 2800.0000000000005 9.020562075079397e-14 99955.0
  vertex 1800.0000000000005 9.020562075079397e-14 99955.0
 endloop
endfacet
facet normal -0.0 -1.0 -2.577303450022685e-15
 outer loop
  vertex 2850.0000000000014 0.0 102435.0
  vertex 50.00000000000023 0.0 102435.0
  vertex 1800.0000000000005 9.020562075079397e-14 102400.0
 endloop
endfacet
facet normal 0.0 -1.0 7.843967021808172e-16
 outer loop
  vertex 50.00000000000023 0.0 99840.0
  vertex 2850.0000000000014 0.0 99840.0
  vertex 1800.0000000000005 9.020562075079397e-14 99955.0
 endloop
endfacet
facet normal -1.8041124150158466e-15 -1.0 0.0
 outer loop
  vertex 2850.0000000000014 0.0 99840.0
  vertex 2850.0000000000014 0.0 102435.0
  vertex 2800.0000000000005 9.020562075079397e-14 99955.0
 endloop
endfacet
facet normal 0.0 1.0 2.6391587328232294e-15
 outer loop
  vertex 2800.0000000000005 50.00000000000009 102400.0
  vertex 1800.0000000000005 50.00000000000009 102400.0
  vertex 2850.0000000000014 50.0 102435.0
 endloop
endfacet
facet normal -5.278317465646457e-17 1.0 0.0
 outer loop
  vertex 50.00000000000023 50.0 99840.0
  vertex 50.00000000000023 50.0 102435.0
  vertex 1800.0000000000005 50.00000000000009 99955.0
 endloop
endfacet
facet normal -5.278317465646457e-17 1.0 0.0
 outer loop
  vertex 50.00000000000023 50.0 102435.0
  vertex 1800.0000000000005 50.00000000000009 102400.0
  vertex 1800.0000000000005 50.00000000000009 99955.0
 endloop
endfacet
facet normal 1.847411112976227e-15 1.0 0.0
 outer loop
  vertex 2800.0000000000005 50.00000000000009 102400.0
  vertex 2850.0000000000014 50.0 102435.0
  vertex 2800.0000000000005 50.00000000000009 99955.0
 endloop
endfacet
facet normal 0.0 1.0 -8.032222230331567e-16
 outer loop
  vertex 1800.0000000000005 50.00000000000009 99955.0
  vertex 2800.0000000000005 50.00000000000009 99955.0
  vertex 2850.0000000000014 50.0 99840.0
 endloop
endfacet
facet normal 0.0 1.0 2.6391587328232294e-15
 outer loop
  vertex 1800.0000000000005 50.00000000000009 102400.0
  vertex 50.00000000000023 50.0 102435.0
  vertex 2850.0000000000014 50.0 102435.0
 endloop
endfacet
facet normal 0.0 1.0 -8.032222230331567e-16
 outer loop
  vertex 1800.0000000000005 50.00000000000009 99955.0
  vertex 2850.0000000000014 50.0 99840.0
  vertex 50.00000000000023 50.0 99840.0
 endloop
endfacet
facet normal 1.847411112976227e-15 1.0 0.0
 outer loop
  vertex 2800.0000000000005 50.00000000000009 99955.0
  vertex 2850.0000000000014 50.0 102435.0
  vertex 2850.0000000000014 50.0 99840.0
 endloop
endfacet
endsolid
