solid
facet normal 0.0 1.0 0.0
 outer loop
  vertex 947.5379117485392 -37.338314562010304 2364.9999999999995
  vertex 947.5379117485392 -37.338314562010304 -115.0
  vertex 57.81679197803402 -37.338314562010304 -115.0
 endloop
endfacet
facet normal -0.0 1.0 0.0
 outer loop
  vertex 57.81679197803402 -37.338314562010304 2364.9999999999995
  vertex 947.5379117485392 -37.338314562010304 2364.9999999999995
  vertex 57.81679197803402 -37.338314562010304 -115.0
 endloop
endfacet
facet normal -1.0 0.0 -0.0
 outer loop
  vertex 57.81679197803402 -37.338314562010304 2364.9999999999995
  vertex 57.81679197803402 -37.338314562010304 -115.0
  vertex 57.81679197803402 -87.3383145620103 -115.0
 endloop
endfacet
facet normal -1.0 0.0 0.0
 outer loop
  vertex 57.81679197803402 -87.3383145620103 2364.9999999999995
  vertex 57.81679197803402 -37.338314562010304 2364.9999999999995
  vertex 57.81679197803402 -87.3383145620103 -115.0
 endloop
endfacet
facet normal 0.0 -1.0 0.0
 outer loop
  vertex 57.81679197803402 -87.3383145620103 2364.9999999999995
  vertex 57.81679197803402 -87.3383145620103 -115.0
  vertex 947.5379117485392 -87.3383145620103 -115.0
 endloop
endfacet
facet normal -0.0 -1.0 -0.0
 outer loop
  vertex 947.5379117485392 -87.3383145620103 2364.9999999999995
  vertex 57.81679197803402 -87.3383145620103 2364.9999999999995
  vertex 947.5379117485392 -87.3383145620103 -115.0
 endloop
endfacet
facet normal 1.0 0.0 0.0
 outer loop
  vertex 947.5379117485392 -87.3383145620103 2364.9999999999995
  vertex 947.5379117485392 -87.3383145620103 -115.0
  vertex 947.5379117485392 -37.338314562010304 -115.0
 endloop
endfacet
facet normal 1.0 0.0 0.0
 outer loop
  vertex 947.5379117485392 -37.338314562010304 2364.9999999999995
  vertex 947.5379117485392 -87.3383145620103 2364.9999999999995
  vertex 947.5379117485392 -37.338314562010304 -115.0
 endloop
endfacet
facet normal 0.0 0.0 -1.0
 outer loop
  vertex 57.81679197803402 -87.3383145620103 -115.0
  vertex 57.81679197803402 -37.338314562010304 -115.0
  vertex 947.5379117485392 -37.338314562010304 -115.0
 endloop
endfacet
facet normal 0.0 0.0 -1.0
 outer loop
  vertex 947.5379117485392 -87.3383145620103 -115.0
  vertex 57.81679197803402 -87.3383145620103 -115.0
  vertex 947.5379117485392 -37.338314562010304 -115.0
 endloop
endfacet
facet normal 0.0 0.0 1.0
 outer loop
  vertex 947.5379117485392 -37.338314562010304 2364.9999999999995
  vertex 57.81679197803402 -37.338314562010304 2364.9999999999995
  vertex 57.81679197803402 -87.3383145620103 2364.9999999999995
 endloop
endfacet
facet normal 0.0 0.0 1.0
 outer loop
  vertex 947.5379117485392 -37.338314562010304 2364.9999999999995
  vertex 57.81679197803402 -87.3383145620103 2364.9999999999995
  vertex 947.5379117485392 -87.3383145620103 2364.9999999999995
 endloop
endfacet
endsolid
