solid
facet normal 0.0 -1.0 0.0
 outer loop
  vertex 897.5379117485203 -37.338314562008755 -115.0
  vertex 947.5379117485203 -37.338314562008755 -115.0
  vertex 947.5379117485203 -37.338314562008755 2364.9999999999995
 endloop
endfacet
facet normal 0.0 -1.0 0.0
 outer loop
  vertex 897.5379117485203 -37.338314562008755 2364.9999999999995
  vertex 897.5379117485203 -37.338314562008755 -115.0
  vertex 947.5379117485203 -37.338314562008755 2364.9999999999995
 endloop
endfacet
facet normal 0.0 1.0 0.0
 outer loop
  vertex 947.5379117485203 1202.6616854379915 2364.9999999999995
  vertex 947.5379117485203 1202.6616854379915 -115.0
  vertex 897.5379117485203 1202.6616854379915 -115.0
 endloop
endfacet
facet normal 0.0 1.0 0.0
 outer loop
  vertex 947.5379117485203 1202.6616854379915 2364.9999999999995
  vertex 897.5379117485203 1202.6616854379915 -115.0
  vertex 897.5379117485203 1202.6616854379915 2364.9999999999995
 endloop
endfacet
facet normal 0.0 -0.0 -1.0
 outer loop
  vertex 947.5379117485203 1202.6616854379915 -115.0
  vertex 947.5379117485203 -37.338314562008755 -115.0
  vertex 897.5379117485203 -37.338314562008755 -115.0
 endloop
endfacet
facet normal -0.0 0.0 -1.0
 outer loop
  vertex 947.5379117485203 1202.6616854379915 -115.0
  vertex 897.5379117485203 -37.338314562008755 -115.0
  vertex 897.5379117485203 1202.6616854379915 -115.0
 endloop
endfacet
facet normal 0.0 0.0 1.0
 outer loop
  vertex 897.5379117485203 -37.338314562008755 2364.9999999999995
  vertex 947.5379117485203 -37.338314562008755 2364.9999999999995
  vertex 947.5379117485203 1202.6616854379915 2364.9999999999995
 endloop
endfacet
facet normal -0.0 0.0 1.0
 outer loop
  vertex 897.5379117485203 1202.6616854379915 2364.9999999999995
  vertex 897.5379117485203 -37.338314562008755 2364.9999999999995
  vertex 947.5379117485203 1202.6616854379915 2364.9999999999995
 endloop
endfacet
facet normal 0.0 -1.0 0.0
 outer loop
  vertex 947.5379117485202 632.6616854379962 -44.99999999999994
  vertex 947.5379117485202 632.6616854379962 2200.0
  vertex 897.5379117485202 632.6616854379962 2200.0
 endloop
endfacet
facet normal 0.0 -1.0 0.0
 outer loop
  vertex 947.5379117485202 632.6616854379962 -44.99999999999994
  vertex 897.5379117485202 632.6616854379962 2200.0
  vertex 897.5379117485202 632.6616854379962 -44.99999999999994
 endloop
endfacet
facet normal 0.0 -0.0 1.0
 outer loop
  vertex 947.5379117485202 -17.338314562003852 -44.99999999999994
  vertex 947.5379117485202 632.6616854379962 -44.99999999999994
  vertex 897.5379117485202 632.6616854379962 -44.99999999999994
 endloop
endfacet
facet normal 0.0 0.0 1.0
 outer loop
  vertex 947.5379117485202 -17.338314562003852 -44.99999999999994
  vertex 897.5379117485202 632.6616854379962 -44.99999999999994
  vertex 897.5379117485202 -17.338314562003852 -44.99999999999994
 endloop
endfacet
facet normal 0.0 1.0 0.0
 outer loop
  vertex 947.5379117485202 -17.338314562003852 2200.0
  vertex 947.5379117485202 -17.338314562003852 -44.99999999999994
  vertex 897.5379117485202 -17.338314562003852 -44.99999999999994
 endloop
endfacet
facet normal 0.0 1.0 0.0
 outer loop
  vertex 947.5379117485202 -17.338314562003852 2200.0
  vertex 897.5379117485202 -17.338314562003852 -44.99999999999994
  vertex 897.5379117485202 -17.338314562003852 2200.0
 endloop
endfacet
facet normal 0.0 -0.0 -1.0
 outer loop
  vertex 947.5379117485202 632.6616854379962 2200.0
  vertex 947.5379117485202 -17.338314562003852 2200.0
  vertex 897.5379117485202 -17.338314562003852 2200.0
 endloop
endfacet
facet normal -0.0 0.0 -1.0
 outer loop
  vertex 947.5379117485202 632.6616854379962 2200.0
  vertex 897.5379117485202 -17.338314562003852 2200.0
  vertex 897.5379117485202 632.6616854379962 2200.0
 endloop
endfacet
facet normal 1.0 0.0 -6.890111377067657e-16
 outer loop
  vertex 947.5379117485202 632.6616854379962 2200.0
  vertex 947.5379117485203 -37.338314562008755 2364.9999999999995
  vertex 947.5379117485202 -17.338314562003852 2200.0
 endloop
endfacet
facet normal 1.0 0.0 -6.890111377067657e-16
 outer loop
  vertex 947.5379117485203 1202.6616854379915 2364.9999999999995
  vertex 947.5379117485203 -37.338314562008755 2364.9999999999995
  vertex 947.5379117485202 632.6616854379962 2200.0
 endloop
endfacet
facet normal 1.0 5.684341886079408e-15 0.0
 outer loop
  vertex 947.5379117485203 -37.338314562008755 -115.0
  vertex 947.5379117485202 -17.338314562003852 -44.99999999999994
  vertex 947.5379117485202 -17.338314562003852 2200.0
 endloop
endfacet
facet normal 1.0 5.684341886079408e-15 -0.0
 outer loop
  vertex 947.5379117485203 -37.338314562008755 -115.0
  vertex 947.5379117485202 -17.338314562003852 2200.0
  vertex 947.5379117485203 -37.338314562008755 2364.9999999999995
 endloop
endfacet
facet normal 1.0 0.0 1.6240976817373706e-15
 outer loop
  vertex 947.5379117485202 632.6616854379962 -44.99999999999994
  vertex 947.5379117485202 -17.338314562003852 -44.99999999999994
  vertex 947.5379117485203 -37.338314562008755 -115.0
 endloop
endfacet
facet normal 1.0 -1.9945059249406484e-16 0.0
 outer loop
  vertex 947.5379117485203 1202.6616854379915 -115.0
  vertex 947.5379117485202 632.6616854379962 2200.0
  vertex 947.5379117485202 632.6616854379962 -44.99999999999994
 endloop
endfacet
facet normal 1.0 -1.9945059249406484e-16 0.0
 outer loop
  vertex 947.5379117485203 1202.6616854379915 -115.0
  vertex 947.5379117485203 1202.6616854379915 2364.9999999999995
  vertex 947.5379117485202 632.6616854379962 2200.0
 endloop
endfacet
facet normal 1.0 -0.0 1.6240976817373704e-15
 outer loop
  vertex 947.5379117485203 -37.338314562008755 -115.0
  vertex 947.5379117485203 1202.6616854379915 -115.0
  vertex 947.5379117485202 632.6616854379962 -44.99999999999994
 endloop
endfacet
facet normal -1.0 0.0 6.890111377067657e-16
 outer loop
  vertex 897.5379117485202 -17.338314562003852 2200.0
  vertex 897.5379117485203 -37.338314562008755 2364.9999999999995
  vertex 897.5379117485202 632.6616854379962 2200.0
 endloop
endfacet
facet normal -1.0 0.0 6.890111377067658e-16
 outer loop
  vertex 897.5379117485202 632.6616854379962 2200.0
  vertex 897.5379117485203 -37.338314562008755 2364.9999999999995
  vertex 897.5379117485203 1202.6616854379915 2364.9999999999995
 endloop
endfacet
facet normal -1.0 -5.684341886079408e-15 -0.0
 outer loop
  vertex 897.5379117485202 -17.338314562003852 2200.0
  vertex 897.5379117485202 -17.338314562003852 -44.99999999999994
  vertex 897.5379117485203 -37.338314562008755 -115.0
 endloop
endfacet
facet normal -1.0 -5.684341886079408e-15 -0.0
 outer loop
  vertex 897.5379117485203 -37.338314562008755 2364.9999999999995
  vertex 897.5379117485202 -17.338314562003852 2200.0
  vertex 897.5379117485203 -37.338314562008755 -115.0
 endloop
endfacet
facet normal -1.0 0.0 -1.6240976817373706e-15
 outer loop
  vertex 897.5379117485203 -37.338314562008755 -115.0
  vertex 897.5379117485202 -17.338314562003852 -44.99999999999994
  vertex 897.5379117485202 632.6616854379962 -44.99999999999994
 endloop
endfacet
facet normal -1.0 1.9945059249406484e-16 0.0
 outer loop
  vertex 897.5379117485202 632.6616854379962 -44.99999999999994
  vertex 897.5379117485202 632.6616854379962 2200.0
  vertex 897.5379117485203 1202.6616854379915 -115.0
 endloop
endfacet
facet normal -1.0 1.9945059249406482e-16 0.0
 outer loop
  vertex 897.5379117485202 632.6616854379962 2200.0
  vertex 897.5379117485203 1202.6616854379915 2364.9999999999995
  vertex 897.5379117485203 1202.6616854379915 -115.0
 endloop
endfacet
facet normal -1.0 0.0 -1.6240976817373708e-15
 outer loop
  vertex 897.5379117485202 632.6616854379962 -44.99999999999994
  vertex 897.5379117485203 1202.6616854379915 -115.0
  vertex 897.5379117485203 -37.338314562008755 -115.0
 endloop
endfacet
endsolid
