solid
facet normal 0.0 -1.0 0.0
 outer loop
  vertex 7.81679197801477 1202.6616854379918 2364.9999999999995
  vertex 7.81679197801477 1202.6616854379918 -115.0
  vertex 947.5379117485165 1202.6616854379918 -115.0
 endloop
endfacet
facet normal -0.0 -1.0 -0.0
 outer loop
  vertex 947.5379117485165 1202.6616854379918 2364.9999999999995
  vertex 7.81679197801477 1202.6616854379918 2364.9999999999995
  vertex 947.5379117485165 1202.6616854379918 -115.0
 endloop
endfacet
facet normal 1.0 0.0 0.0
 outer loop
  vertex 947.5379117485165 1202.6616854379918 2364.9999999999995
  vertex 947.5379117485165 1202.6616854379918 -115.0
  vertex 947.5379117485165 1252.6616854379915 -115.0
 endloop
endfacet
facet normal 1.0 0.0 0.0
 outer loop
  vertex 947.5379117485165 1252.6616854379915 2364.9999999999995
  vertex 947.5379117485165 1202.6616854379918 2364.9999999999995
  vertex 947.5379117485165 1252.6616854379915 -115.0
 endloop
endfacet
facet normal 0.0 1.0 0.0
 outer loop
  vertex 947.5379117485165 1252.6616854379915 2364.9999999999995
  vertex 947.5379117485165 1252.6616854379915 -115.0
  vertex 7.81679197801477 1252.6616854379915 -115.0
 endloop
endfacet
facet normal -0.0 1.0 0.0
 outer loop
  vertex 7.81679197801477 1252.6616854379915 2364.9999999999995
  vertex 947.5379117485165 1252.6616854379915 2364.9999999999995
  vertex 7.81679197801477 1252.6616854379915 -115.0
 endloop
endfacet
facet normal -1.0 0.0 -0.0
 outer loop
  vertex 7.81679197801477 1252.6616854379915 2364.9999999999995
  vertex 7.81679197801477 1252.6616854379915 -115.0
  vertex 7.81679197801477 1202.6616854379918 -115.0
 endloop
endfacet
facet normal -1.0 0.0 0.0
 outer loop
  vertex 7.81679197801477 1202.6616854379918 2364.9999999999995
  vertex 7.81679197801477 1252.6616854379915 2364.9999999999995
  vertex 7.81679197801477 1202.6616854379918 -115.0
 endloop
endfacet
facet normal 0.0 -0.0 -1.0
 outer loop
  vertex 947.5379117485165 1252.6616854379915 -115.0
  vertex 947.5379117485165 1202.6616854379918 -115.0
  vertex 7.81679197801477 1202.6616854379918 -115.0
 endloop
endfacet
facet normal 0.0 0.0 -1.0
 outer loop
  vertex 7.81679197801477 1252.6616854379915 -115.0
  vertex 947.5379117485165 1252.6616854379915 -115.0
  vertex 7.81679197801477 1202.6616854379918 -115.0
 endloop
endfacet
facet normal 0.0 0.0 1.0
 outer loop
  vertex 7.81679197801477 1202.6616854379918 2364.9999999999995
  vertex 947.5379117485165 1202.6616854379918 2364.9999999999995
  vertex 947.5379117485165 1252.6616854379915 2364.9999999999995
 endloop
endfacet
facet normal 0.0 0.0 1.0
 outer loop
  vertex 7.81679197801477 1202.6616854379918 2364.9999999999995
  vertex 947.5379117485165 1252.6616854379915 2364.9999999999995
  vertex 7.81679197801477 1252.6616854379915 2364.9999999999995
 endloop
endfacet
endsolid
