solid
facet normal 1.0 0.0 0.0
 outer loop
  vertex 57.81679197803397 -87.33831456202168 2365.0
  vertex 57.81679197803397 -87.33831456202168 -115.0
  vertex 57.81679197803397 1202.66168543799 -115.0
 endloop
endfacet
facet normal 1.0 0.0 0.0
 outer loop
  vertex 57.81679197803397 1202.66168543799 2365.0
  vertex 57.81679197803397 -87.33831456202168 2365.0
  vertex 57.81679197803397 1202.66168543799 -115.0
 endloop
endfacet
facet normal 0.0 1.0 0.0
 outer loop
  vertex 57.81679197803397 1202.66168543799 2365.0
  vertex 57.81679197803397 1202.66168543799 -115.0
  vertex 7.816791978033959 1202.66168543799 -115.0
 endloop
endfacet
facet normal -0.0 1.0 0.0
 outer loop
  vertex 7.816791978033959 1202.66168543799 2365.0
  vertex 57.81679197803397 1202.66168543799 2365.0
  vertex 7.816791978033959 1202.66168543799 -115.0
 endloop
endfacet
facet normal -1.0 0.0 -0.0
 outer loop
  vertex 7.816791978033959 1202.66168543799 2365.0
  vertex 7.816791978033959 1202.66168543799 -115.0
  vertex 7.816791978033959 -87.33831456202168 -115.0
 endloop
endfacet
facet normal -1.0 0.0 0.0
 outer loop
  vertex 7.816791978033959 -87.33831456202168 2365.0
  vertex 7.816791978033959 1202.66168543799 2365.0
  vertex 7.816791978033959 -87.33831456202168 -115.0
 endloop
endfacet
facet normal 0.0 -1.0 0.0
 outer loop
  vertex 7.816791978033959 -87.33831456202168 2365.0
  vertex 7.816791978033959 -87.33831456202168 -115.0
  vertex 57.81679197803397 -87.33831456202168 -115.0
 endloop
endfacet
facet normal -0.0 -1.0 -0.0
 outer loop
  vertex 57.81679197803397 -87.33831456202168 2365.0
  vertex 7.816791978033959 -87.33831456202168 2365.0
  vertex 57.81679197803397 -87.33831456202168 -115.0
 endloop
endfacet
facet normal 0.0 0.0 -1.0
 outer loop
  vertex 7.816791978033959 1202.66168543799 -115.0
  vertex 57.81679197803397 1202.66168543799 -115.0
  vertex 57.81679197803397 -87.33831456202168 -115.0
 endloop
endfacet
facet normal 0.0 0.0 -1.0
 outer loop
  vertex 7.816791978033959 -87.33831456202168 -115.0
  vertex 7.816791978033959 1202.66168543799 -115.0
  vertex 57.81679197803397 -87.33831456202168 -115.0
 endloop
endfacet
facet normal 0.0 -0.0 1.0
 outer loop
  vertex 57.81679197803397 -87.33831456202168 2365.0
  vertex 57.81679197803397 1202.66168543799 2365.0
  vertex 7.816791978033959 1202.66168543799 2365.0
 endloop
endfacet
facet normal 0.0 0.0 1.0
 outer loop
  vertex 57.81679197803397 -87.33831456202168 2365.0
  vertex 7.816791978033959 1202.66168543799 2365.0
  vertex 7.816791978033959 -87.33831456202168 2365.0
 endloop
endfacet
endsolid
