solid
facet normal 0.0 0.0 -1.0
 outer loop
  vertex 3.469446951953614e-15 -3.3306690738754696e-12 99840.0
  vertex 3.469446951953614e-15 1289.9999999999998 99840.0
  vertex 50.0 1289.9999999999998 99840.0
 endloop
endfacet
facet normal 0.0 0.0 -1.0
 outer loop
  vertex 3.469446951953614e-15 -3.3306690738754696e-12 99840.0
  vertex 50.0 1289.9999999999998 99840.0
  vertex 50.0 -3.3306690738754696e-12 99840.0
 endloop
endfacet
facet normal 0.0 -1.0 0.0
 outer loop
  vertex 3.469446951953614e-15 -3.3306690738754696e-12 102435.0
  vertex 3.469446951953614e-15 -3.3306690738754696e-12 99840.0
  vertex 50.0 -3.3306690738754696e-12 99840.0
 endloop
endfacet
facet normal 0.0 -1.0 0.0
 outer loop
  vertex 3.469446951953614e-15 -3.3306690738754696e-12 102435.0
  vertex 50.0 -3.3306690738754696e-12 99840.0
  vertex 50.0 -3.3306690738754696e-12 102435.0
 endloop
endfacet
facet normal 0.0 0.0 1.0
 outer loop
  vertex 50.00000000000009 50.00000000000004 102435.0
  vertex 9.020562075079397e-14 50.00000000000004 102435.0
  vertex 3.469446951953614e-15 -3.3306690738754696e-12 102435.0
 endloop
endfacet
facet normal 0.0 -0.0 1.0
 outer loop
  vertex 50.0 -3.3306690738754696e-12 102435.0
  vertex 50.00000000000009 50.00000000000004 102435.0
  vertex 3.469446951953614e-15 -3.3306690738754696e-12 102435.0
 endloop
endfacet
facet normal 0.0 1.0 0.0
 outer loop
  vertex 9.020562075079397e-14 50.00000000000004 101030.0
  vertex 9.020562075079397e-14 50.00000000000004 102435.0
  vertex 50.00000000000009 50.00000000000004 102435.0
 endloop
endfacet
facet normal 0.0 1.0 0.0
 outer loop
  vertex 9.020562075079397e-14 50.00000000000004 101030.0
  vertex 50.00000000000009 50.00000000000004 102435.0
  vertex 50.00000000000009 50.00000000000004 101030.0
 endloop
endfacet
facet normal 0.0 0.0 1.0
 outer loop
  vertex 9.020562075079397e-14 789.9999999999998 101030.0
  vertex 9.020562075079397e-14 50.00000000000004 101030.0
  vertex 50.00000000000009 50.00000000000004 101030.0
 endloop
endfacet
facet normal -0.0 0.0 1.0
 outer loop
  vertex 9.020562075079397e-14 789.9999999999998 101030.0
  vertex 50.00000000000009 50.00000000000004 101030.0
  vertex 50.00000000000009 789.9999999999998 101030.0
 endloop
endfacet
facet normal 0.0 -1.0 0.0
 outer loop
  vertex 9.020562075079397e-14 789.9999999999998 102435.0
  vertex 9.020562075079397e-14 789.9999999999998 101030.0
  vertex 50.00000000000009 789.9999999999998 101030.0
 endloop
endfacet
facet normal 0.0 -1.0 0.0
 outer loop
  vertex 9.020562075079397e-14 789.9999999999998 102435.0
  vertex 50.00000000000009 789.9999999999998 101030.0
  vertex 50.00000000000009 789.9999999999998 102435.0
 endloop
endfacet
facet normal 0.0 0.0 1.0
 outer loop
  vertex 50.0 1289.9999999999998 102435.0
  vertex 3.469446951953614e-15 1289.9999999999998 102435.0
  vertex 9.020562075079397e-14 789.9999999999998 102435.0
 endloop
endfacet
facet normal 0.0 0.0 1.0
 outer loop
  vertex 50.00000000000009 789.9999999999998 102435.0
  vertex 50.0 1289.9999999999998 102435.0
  vertex 9.020562075079397e-14 789.9999999999998 102435.0
 endloop
endfacet
facet normal 0.0 1.0 0.0
 outer loop
  vertex 50.0 1289.9999999999998 99840.0
  vertex 3.469446951953614e-15 1289.9999999999998 99840.0
  vertex 3.469446951953614e-15 1289.9999999999998 102435.0
 endloop
endfacet
facet normal 0.0 1.0 0.0
 outer loop
  vertex 50.0 1289.9999999999998 102435.0
  vertex 50.0 1289.9999999999998 99840.0
  vertex 3.469446951953614e-15 1289.9999999999998 102435.0
 endloop
endfacet
facet normal -1.0 -1.734723475976807e-16 -0.0
 outer loop
  vertex 9.020562075079397e-14 789.9999999999998 102435.0
  vertex 3.469446951953614e-15 1289.9999999999998 102435.0
  vertex 9.020562075079397e-14 789.9999999999998 101030.0
 endloop
endfacet
facet normal -1.0 -1.734723475976807e-16 0.0
 outer loop
  vertex 9.020562075079397e-14 789.9999999999998 101030.0
  vertex 3.469446951953614e-15 1289.9999999999998 102435.0
  vertex 3.469446951953614e-15 1289.9999999999998 99840.0
 endloop
endfacet
facet normal -1.0 1.73472347597669e-15 0.0
 outer loop
  vertex 3.469446951953614e-15 -3.3306690738754696e-12 102435.0
  vertex 9.020562075079397e-14 50.00000000000004 102435.0
  vertex 9.020562075079397e-14 50.00000000000004 101030.0
 endloop
endfacet
facet normal -1.0 0.0 7.288754100742886e-17
 outer loop
  vertex 9.020562075079397e-14 50.00000000000004 101030.0
  vertex 9.020562075079397e-14 789.9999999999998 101030.0
  vertex 3.469446951953614e-15 -3.3306690738754696e-12 99840.0
 endloop
endfacet
facet normal -1.0 0.0 7.288754100742887e-17
 outer loop
  vertex 9.020562075079397e-14 789.9999999999998 101030.0
  vertex 3.469446951953614e-15 1289.9999999999998 99840.0
  vertex 3.469446951953614e-15 -3.3306690738754696e-12 99840.0
 endloop
endfacet
facet normal -1.0 1.73472347597669e-15 0.0
 outer loop
  vertex 9.020562075079397e-14 50.00000000000004 101030.0
  vertex 3.469446951953614e-15 -3.3306690738754696e-12 99840.0
  vertex 3.469446951953614e-15 -3.3306690738754696e-12 102435.0
 endloop
endfacet
facet normal 1.0 1.8474111129762604e-16 -0.0
 outer loop
  vertex 50.00000000000009 789.9999999999998 101030.0
  vertex 50.0 1289.9999999999998 102435.0
  vertex 50.00000000000009 789.9999999999998 102435.0
 endloop
endfacet
facet normal 1.0 1.8474111129762604e-16 -0.0
 outer loop
  vertex 50.0 1289.9999999999998 99840.0
  vertex 50.0 1289.9999999999998 102435.0
  vertex 50.00000000000009 789.9999999999998 101030.0
 endloop
endfacet
facet normal 1.0 -1.847411112976136e-15 0.0
 outer loop
  vertex 50.00000000000009 50.00000000000004 101030.0
  vertex 50.00000000000009 50.00000000000004 102435.0
  vertex 50.0 -3.3306690738754696e-12 102435.0
 endloop
endfacet
facet normal 1.0 0.0 -7.762231567127146e-17
 outer loop
  vertex 50.0 -3.3306690738754696e-12 99840.0
  vertex 50.00000000000009 789.9999999999998 101030.0
  vertex 50.00000000000009 50.00000000000004 101030.0
 endloop
endfacet
facet normal 1.0 0.0 -7.762231567127144e-17
 outer loop
  vertex 50.0 -3.3306690738754696e-12 99840.0
  vertex 50.0 1289.9999999999998 99840.0
  vertex 50.00000000000009 789.9999999999998 101030.0
 endloop
endfacet
facet normal 1.0 -1.847411112976136e-15 0.0
 outer loop
  vertex 50.0 -3.3306690738754696e-12 102435.0
  vertex 50.0 -3.3306690738754696e-12 99840.0
  vertex 50.00000000000009 50.00000000000004 101030.0
 endloop
endfacet
endsolid
