solid
facet normal -1.0 0.0 0.0
 outer loop
  vertex 0.9599990433769091 0.9999988846666416 99.84
  vertex 0.9599990433769091 0.9999988846666416 99.955
  vertex 0.9599990433769091 1.2899999999998415 99.955
 endloop
endfacet
facet normal -1.0 0.0 0.0
 outer loop
  vertex 0.9599990433769091 1.2899999999998415 99.84
  vertex 0.9599990433769091 0.9999988846666416 99.84
  vertex 0.9599990433769091 1.2899999999998415 99.955
 endloop
endfacet
facet normal -4.440807134926671e-15 1.0 0.0
 outer loop
  vertex 0.9599990433769091 1.2899999999998415 99.84
  vertex 0.9599990433769091 1.2899999999998415 99.955
  vertex 1.0100000000000113 1.2899999999998417 99.955
 endloop
endfacet
facet normal -4.440807134926671e-15 1.0 0.0
 outer loop
  vertex 1.0100000000000113 1.2899999999998417 99.84
  vertex 0.9599990433769091 1.2899999999998415 99.84
  vertex 1.0100000000000113 1.2899999999998417 99.955
 endloop
endfacet
facet normal -1.0 4.875979500042873e-15 0.0
 outer loop
  vertex 1.0100000000000113 1.2899999999998417 99.84
  vertex 1.0100000000000113 1.2899999999998417 99.955
  vertex 1.0100000000000142 1.8819999999998471 99.955
 endloop
endfacet
facet normal -1.0 4.875979500042873e-15 0.0
 outer loop
  vertex 1.0100000000000142 1.8819999999998471 99.84
  vertex 1.0100000000000113 1.2899999999998417 99.84
  vertex 1.0100000000000142 1.8819999999998471 99.955
 endloop
endfacet
facet normal 3.4996160558836463e-15 1.0 -0.0
 outer loop
  vertex 1.0100000000000142 1.8819999999998471 99.84
  vertex 1.0100000000000142 1.8819999999998471 99.955
  vertex 2.850000000000014 1.8819999999998407 99.955
 endloop
endfacet
facet normal 3.4996160558836463e-15 1.0 -0.0
 outer loop
  vertex 2.850000000000014 1.8819999999998407 99.84
  vertex 1.0100000000000142 1.8819999999998471 99.84
  vertex 2.850000000000014 1.8819999999998407 99.955
 endloop
endfacet
facet normal 1.0 -4.605728704776859e-15 0.0
 outer loop
  vertex 2.850000000000014 1.8819999999998407 99.84
  vertex 2.850000000000014 1.8819999999998407 99.955
  vertex 2.8500000000000054 0.04999999999984417 99.955
 endloop
endfacet
facet normal 1.0 -4.605728704776859e-15 0.0
 outer loop
  vertex 2.8500000000000054 0.04999999999984417 99.84
  vertex 2.850000000000014 1.8819999999998407 99.84
  vertex 2.8500000000000054 0.04999999999984417 99.955
 endloop
endfacet
facet normal 1.703515948037171e-15 -1.0 0.0
 outer loop
  vertex 2.8500000000000054 0.04999999999984417 99.84
  vertex 2.8500000000000054 0.04999999999984417 99.955
  vertex 0.959999043376909 0.04999999999984095 99.955
 endloop
endfacet
facet normal 1.703515948037171e-15 -1.0 0.0
 outer loop
  vertex 0.959999043376909 0.04999999999984095 99.84
  vertex 2.8500000000000054 0.04999999999984417 99.84
  vertex 0.959999043376909 0.04999999999984095 99.955
 endloop
endfacet
facet normal -1.0 0.0 0.0
 outer loop
  vertex 0.959999043376909 0.04999999999984095 99.84
  vertex 0.959999043376909 0.04999999999984095 99.955
  vertex 0.959999043376909 0.3399988846666442 99.955
 endloop
endfacet
facet normal -1.0 0.0 0.0
 outer loop
  vertex 0.959999043376909 0.3399988846666442 99.84
  vertex 0.959999043376909 0.04999999999984095 99.84
  vertex 0.959999043376909 0.3399988846666442 99.955
 endloop
endfacet
facet normal 2.2203398478311358e-14 1.0 -0.0
 outer loop
  vertex 0.959999043376909 0.3399988846666442 99.84
  vertex 0.959999043376909 0.3399988846666442 99.955
  vertex 0.9800000000000069 0.33999888466664374 99.955
 endloop
endfacet
facet normal 2.2203398478311358e-14 1.0 -0.0
 outer loop
  vertex 0.9800000000000069 0.33999888466664374 99.84
  vertex 0.959999043376909 0.3399988846666442 99.84
  vertex 0.9800000000000069 0.33999888466664374 99.955
 endloop
endfacet
facet normal -1.0 8.242564879792858e-15 0.0
 outer loop
  vertex 0.9800000000000069 0.33999888466664374 99.84
  vertex 0.9800000000000069 0.33999888466664374 99.955
  vertex 0.9800000000000123 0.9999988846666414 99.955
 endloop
endfacet
facet normal -1.0 8.242564879792858e-15 0.0
 outer loop
  vertex 0.9800000000000123 0.9999988846666414 99.84
  vertex 0.9800000000000069 0.33999888466664374 99.84
  vertex 0.9800000000000123 0.9999988846666414 99.955
 endloop
endfacet
facet normal -5.55084961957636e-15 -1.0 0.0
 outer loop
  vertex 0.9800000000000123 0.9999988846666414 99.84
  vertex 0.9800000000000123 0.9999988846666414 99.955
  vertex 0.9599990433769091 0.9999988846666416 99.955
 endloop
endfacet
facet normal -5.55084961957636e-15 -1.0 0.0
 outer loop
  vertex 0.9599990433769091 0.9999988846666416 99.84
  vertex 0.9800000000000123 0.9999988846666414 99.84
  vertex 0.9599990433769091 0.9999988846666416 99.955
 endloop
endfacet
facet normal 0.0 0.0 1.0
 outer loop
  vertex 0.959999043376909 0.3399988846666442 99.955
  vertex 0.959999043376909 0.04999999999984095 99.955
  vertex 0.9800000000000069 0.33999888466664374 99.955
 endloop
endfacet
facet normal -0.0 0.0 1.0
 outer loop
  vertex 0.9599990433769091 0.9999988846666416 99.955
  vertex 0.9800000000000123 0.9999988846666414 99.955
  vertex 0.9599990433769091 1.2899999999998415 99.955
 endloop
endfacet
facet normal -0.0 0.0 1.0
 outer loop
  vertex 0.9599990433769091 1.2899999999998415 99.955
  vertex 0.9800000000000123 0.9999988846666414 99.955
  vertex 1.0100000000000113 1.2899999999998417 99.955
 endloop
endfacet
facet normal 0.0 0.0 1.0
 outer loop
  vertex 0.9800000000000123 0.9999988846666414 99.955
  vertex 0.9800000000000069 0.33999888466664374 99.955
  vertex 2.8500000000000054 0.04999999999984417 99.955
 endloop
endfacet
facet normal 0.0 0.0 1.0
 outer loop
  vertex 0.9800000000000069 0.33999888466664374 99.955
  vertex 0.959999043376909 0.04999999999984095 99.955
  vertex 2.8500000000000054 0.04999999999984417 99.955
 endloop
endfacet
facet normal 0.0 0.0 1.0
 outer loop
  vertex 1.0100000000000142 1.8819999999998471 99.955
  vertex 1.0100000000000113 1.2899999999998417 99.955
  vertex 2.850000000000014 1.8819999999998407 99.955
 endloop
endfacet
facet normal -0.0 0.0 1.0
 outer loop
  vertex 0.9800000000000123 0.9999988846666414 99.955
  vertex 2.8500000000000054 0.04999999999984417 99.955
  vertex 2.850000000000014 1.8819999999998407 99.955
 endloop
endfacet
facet normal -0.0 0.0 1.0
 outer loop
  vertex 1.0100000000000113 1.2899999999998417 99.955
  vertex 0.9800000000000123 0.9999988846666414 99.955
  vertex 2.850000000000014 1.8819999999998407 99.955
 endloop
endfacet
facet normal -0.0 0.0 -1.0
 outer loop
  vertex 0.9800000000000069 0.33999888466664374 99.84
  vertex 0.959999043376909 0.04999999999984095 99.84
  vertex 0.959999043376909 0.3399988846666442 99.84
 endloop
endfacet
facet normal 0.0 0.0 -1.0
 outer loop
  vertex 0.9599990433769091 1.2899999999998415 99.84
  vertex 0.9800000000000123 0.9999988846666414 99.84
  vertex 0.9599990433769091 0.9999988846666416 99.84
 endloop
endfacet
facet normal 0.0 0.0 -1.0
 outer loop
  vertex 1.0100000000000113 1.2899999999998417 99.84
  vertex 0.9800000000000123 0.9999988846666414 99.84
  vertex 0.9599990433769091 1.2899999999998415 99.84
 endloop
endfacet
facet normal 0.0 0.0 -1.0
 outer loop
  vertex 2.8500000000000054 0.04999999999984417 99.84
  vertex 0.9800000000000069 0.33999888466664374 99.84
  vertex 0.9800000000000123 0.9999988846666414 99.84
 endloop
endfacet
facet normal -0.0 0.0 -1.0
 outer loop
  vertex 2.8500000000000054 0.04999999999984417 99.84
  vertex 0.959999043376909 0.04999999999984095 99.84
  vertex 0.9800000000000069 0.33999888466664374 99.84
 endloop
endfacet
facet normal -0.0 0.0 -1.0
 outer loop
  vertex 2.850000000000014 1.8819999999998407 99.84
  vertex 1.0100000000000113 1.2899999999998417 99.84
  vertex 1.0100000000000142 1.8819999999998471 99.84
 endloop
endfacet
facet normal 0.0 0.0 -1.0
 outer loop
  vertex 2.850000000000014 1.8819999999998407 99.84
  vertex 2.8500000000000054 0.04999999999984417 99.84
  vertex 0.9800000000000123 0.9999988846666414 99.84
 endloop
endfacet
facet normal 0.0 0.0 -1.0
 outer loop
  vertex 2.850000000000014 1.8819999999998407 99.84
  vertex 0.9800000000000123 0.9999988846666414 99.84
  vertex 1.0100000000000113 1.2899999999998417 99.84
 endloop
endfacet
facet normal -1.0 0.0 0.0
 outer loop
  vertex 0.9599990433769103 0.9999988846666423 99.955
  vertex 0.9599990433769103 0.9999988846666423 99.975
  vertex 0.9599990433769103 1.2699999999998015 99.975
 endloop
endfacet
facet normal -1.0 0.0 0.0
 outer loop
  vertex 0.9599990433769103 1.2699999999998015 99.955
  vertex 0.9599990433769103 0.9999988846666423 99.955
  vertex 0.9599990433769103 1.2699999999998015 99.975
 endloop
endfacet
facet normal 3.1720224356440467e-15 1.0 -0.0
 outer loop
  vertex 0.9599990433769103 1.2699999999998015 99.955
  vertex 0.9599990433769103 1.2699999999998015 99.975
  vertex 1.0300000000000142 1.2699999999998013 99.975
 endloop
endfacet
facet normal 3.1720224356440467e-15 1.0 -0.0
 outer loop
  vertex 1.0300000000000142 1.2699999999998013 99.955
  vertex 0.9599990433769103 1.2699999999998015 99.955
  vertex 1.0300000000000142 1.2699999999998013 99.975
 endloop
endfacet
facet normal -1.0 1.15347846714292e-15 0.0
 outer loop
  vertex 1.0300000000000142 1.2699999999998013 99.955
  vertex 1.0300000000000142 1.2699999999998013 99.975
  vertex 1.0300000000000147 1.6549999999998346 99.975
 endloop
endfacet
facet normal -1.0 1.15347846714292e-15 0.0
 outer loop
  vertex 1.0300000000000147 1.6549999999998346 99.955
  vertex 1.0300000000000142 1.2699999999998013 99.955
  vertex 1.0300000000000147 1.6549999999998346 99.975
 endloop
endfacet
facet normal 6.167905692361983e-16 1.0 -0.0
 outer loop
  vertex 1.0300000000000147 1.6549999999998346 99.955
  vertex 1.0300000000000147 1.6549999999998346 99.975
  vertex 2.8300000000000143 1.6549999999998335 99.975
 endloop
endfacet
facet normal 6.167905692361983e-16 1.0 -0.0
 outer loop
  vertex 2.8300000000000143 1.6549999999998335 99.955
  vertex 1.0300000000000147 1.6549999999998346 99.955
  vertex 2.8300000000000143 1.6549999999998335 99.975
 endloop
endfacet
facet normal 1.0 -5.426170409743448e-15 0.0
 outer loop
  vertex 2.8300000000000143 1.6549999999998335 99.955
  vertex 2.8300000000000143 1.6549999999998335 99.975
  vertex 2.830000000000006 0.09999999999980991 99.975
 endloop
endfacet
facet normal 1.0 -5.426170409743448e-15 0.0
 outer loop
  vertex 2.830000000000006 0.09999999999980991 99.955
  vertex 2.8300000000000143 1.6549999999998335 99.955
  vertex 2.830000000000006 0.09999999999980991 99.975
 endloop
endfacet
facet normal -1.0369064097914207e-14 -1.0 0.0
 outer loop
  vertex 2.830000000000006 0.09999999999980991 99.955
  vertex 2.830000000000006 0.09999999999980991 99.975
  vertex 1.7700000000000067 0.0999999999998209 99.975
 endloop
endfacet
facet normal -1.0369064097914207e-14 -1.0 0.0
 outer loop
  vertex 1.7700000000000067 0.0999999999998209 99.955
  vertex 2.830000000000006 0.09999999999980991 99.955
  vertex 1.7700000000000067 0.0999999999998209 99.975
 endloop
endfacet
facet normal 1.0 0.0 -0.0
 outer loop
  vertex 1.7700000000000067 0.0999999999998209 99.955
  vertex 1.7700000000000067 0.0999999999998209 99.975
  vertex 1.7700000000000067 0.06999999999981965 99.975
 endloop
endfacet
facet normal 1.0 0.0 0.0
 outer loop
  vertex 1.7700000000000067 0.06999999999981965 99.955
  vertex 1.7700000000000067 0.0999999999998209 99.955
  vertex 1.7700000000000067 0.06999999999981965 99.975
 endloop
endfacet
facet normal -2.7412881813218824e-16 -1.0 0.0
 outer loop
  vertex 1.7700000000000067 0.06999999999981965 99.955
  vertex 1.7700000000000067 0.06999999999981965 99.975
  vertex 0.9599990433769101 0.06999999999981987 99.975
 endloop
endfacet
facet normal -2.7412881813218824e-16 -1.0 0.0
 outer loop
  vertex 0.9599990433769101 0.06999999999981987 99.955
  vertex 1.7700000000000067 0.06999999999981965 99.955
  vertex 0.9599990433769101 0.06999999999981987 99.975
 endloop
endfacet
facet normal -1.0 8.223908228325885e-16 0.0
 outer loop
  vertex 0.9599990433769101 0.06999999999981987 99.955
  vertex 0.9599990433769101 0.06999999999981987 99.975
  vertex 0.9599990433769103 0.3399988846666448 99.975
 endloop
endfacet
facet normal -1.0 8.223908228325885e-16 0.0
 outer loop
  vertex 0.9599990433769103 0.3399988846666448 99.955
  vertex 0.9599990433769101 0.06999999999981987 99.955
  vertex 0.9599990433769103 0.3399988846666448 99.975
 endloop
endfacet
facet normal 1.9427044494989166e-14 1.0 -0.0
 outer loop
  vertex 0.9599990433769103 0.3399988846666448 99.955
  vertex 0.9599990433769103 0.3399988846666448 99.975
  vertex 0.9800009566231085 0.3399988846666444 99.975
 endloop
endfacet
facet normal 1.9427044494989166e-14 1.0 -0.0
 outer loop
  vertex 0.9800009566231085 0.3399988846666444 99.955
  vertex 0.9599990433769103 0.3399988846666448 99.955
  vertex 0.9800009566231085 0.3399988846666444 99.975
 endloop
endfacet
facet normal -1.0 8.74721170916793e-15 0.0
 outer loop
  vertex 0.9800009566231085 0.3399988846666444 99.955
  vertex 0.9800009566231085 0.3399988846666444 99.975
  vertex 0.9800009566231143 0.9999988846666422 99.975
 endloop
endfacet
facet normal -1.0 8.74721170916793e-15 0.0
 outer loop
  vertex 0.9800009566231143 0.9999988846666422 99.955
  vertex 0.9800009566231085 0.3399988846666444 99.955
  vertex 0.9800009566231143 0.9999988846666422 99.975
 endloop
endfacet
facet normal -5.550584141423875e-15 -1.0 0.0
 outer loop
  vertex 0.9800009566231143 0.9999988846666422 99.955
  vertex 0.9800009566231143 0.9999988846666422 99.975
  vertex 0.9599990433769103 0.9999988846666423 99.975
 endloop
endfacet
facet normal -5.550584141423875e-15 -1.0 0.0
 outer loop
  vertex 0.9599990433769103 0.9999988846666423 99.955
  vertex 0.9800009566231143 0.9999988846666422 99.955
  vertex 0.9599990433769103 0.9999988846666423 99.975
 endloop
endfacet
facet normal 0.0 0.0 1.0
 outer loop
  vertex 0.9599990433769103 0.3399988846666448 99.975
  vertex 0.9599990433769101 0.06999999999981987 99.975
  vertex 0.9800009566231085 0.3399988846666444 99.975
 endloop
endfacet
facet normal -0.0 0.0 1.0
 outer loop
  vertex 0.9599990433769101 0.06999999999981987 99.975
  vertex 1.7700000000000067 0.06999999999981965 99.975
  vertex 1.7700000000000067 0.0999999999998209 99.975
 endloop
endfacet
facet normal 0.0 0.0 1.0
 outer loop
  vertex 0.9800009566231085 0.3399988846666444 99.975
  vertex 0.9599990433769101 0.06999999999981987 99.975
  vertex 1.7700000000000067 0.0999999999998209 99.975
 endloop
endfacet
facet normal -0.0 0.0 1.0
 outer loop
  vertex 0.9800009566231085 0.3399988846666444 99.975
  vertex 1.7700000000000067 0.0999999999998209 99.975
  vertex 0.9800009566231143 0.9999988846666422 99.975
 endloop
endfacet
facet normal -0.0 0.0 1.0
 outer loop
  vertex 0.9599990433769103 0.9999988846666423 99.975
  vertex 0.9800009566231143 0.9999988846666422 99.975
  vertex 0.9599990433769103 1.2699999999998015 99.975
 endloop
endfacet
facet normal 0.0 0.0 1.0
 outer loop
  vertex 0.9599990433769103 1.2699999999998015 99.975
  vertex 0.9800009566231143 0.9999988846666422 99.975
  vertex 1.0300000000000142 1.2699999999998013 99.975
 endloop
endfacet
facet normal -0.0 0.0 1.0
 outer loop
  vertex 0.9800009566231143 0.9999988846666422 99.975
  vertex 1.7700000000000067 0.0999999999998209 99.975
  vertex 1.0300000000000142 1.2699999999998013 99.975
 endloop
endfacet
facet normal 0.0 0.0 1.0
 outer loop
  vertex 1.0300000000000147 1.6549999999998346 99.975
  vertex 1.0300000000000142 1.2699999999998013 99.975
  vertex 2.8300000000000143 1.6549999999998335 99.975
 endloop
endfacet
facet normal -0.0 0.0 1.0
 outer loop
  vertex 1.7700000000000067 0.0999999999998209 99.975
  vertex 2.830000000000006 0.09999999999980991 99.975
  vertex 2.8300000000000143 1.6549999999998335 99.975
 endloop
endfacet
facet normal -0.0 0.0 1.0
 outer loop
  vertex 1.0300000000000142 1.2699999999998013 99.975
  vertex 1.7700000000000067 0.0999999999998209 99.975
  vertex 2.8300000000000143 1.6549999999998335 99.975
 endloop
endfacet
facet normal -0.0 0.0 -1.0
 outer loop
  vertex 0.9800009566231085 0.3399988846666444 99.955
  vertex 0.9599990433769101 0.06999999999981987 99.955
  vertex 0.9599990433769103 0.3399988846666448 99.955
 endloop
endfacet
facet normal 0.0 -0.0 -1.0
 outer loop
  vertex 1.7700000000000067 0.0999999999998209 99.955
  vertex 1.7700000000000067 0.06999999999981965 99.955
  vertex 0.9599990433769101 0.06999999999981987 99.955
 endloop
endfacet
facet normal -0.0 0.0 -1.0
 outer loop
  vertex 1.7700000000000067 0.0999999999998209 99.955
  vertex 0.9599990433769101 0.06999999999981987 99.955
  vertex 0.9800009566231085 0.3399988846666444 99.955
 endloop
endfacet
facet normal 0.0 -0.0 -1.0
 outer loop
  vertex 0.9800009566231143 0.9999988846666422 99.955
  vertex 1.7700000000000067 0.0999999999998209 99.955
  vertex 0.9800009566231085 0.3399988846666444 99.955
 endloop
endfacet
facet normal 0.0 0.0 -1.0
 outer loop
  vertex 0.9599990433769103 1.2699999999998015 99.955
  vertex 0.9800009566231143 0.9999988846666422 99.955
  vertex 0.9599990433769103 0.9999988846666423 99.955
 endloop
endfacet
facet normal -0.0 0.0 -1.0
 outer loop
  vertex 1.0300000000000142 1.2699999999998013 99.955
  vertex 0.9800009566231143 0.9999988846666422 99.955
  vertex 0.9599990433769103 1.2699999999998015 99.955
 endloop
endfacet
facet normal 0.0 -0.0 -1.0
 outer loop
  vertex 1.0300000000000142 1.2699999999998013 99.955
  vertex 1.7700000000000067 0.0999999999998209 99.955
  vertex 0.9800009566231143 0.9999988846666422 99.955
 endloop
endfacet
facet normal -0.0 0.0 -1.0
 outer loop
  vertex 2.8300000000000143 1.6549999999998335 99.955
  vertex 1.0300000000000142 1.2699999999998013 99.955
  vertex 1.0300000000000147 1.6549999999998346 99.955
 endloop
endfacet
facet normal 0.0 0.0 -1.0
 outer loop
  vertex 2.8300000000000143 1.6549999999998335 99.955
  vertex 2.830000000000006 0.09999999999980991 99.955
  vertex 1.7700000000000067 0.0999999999998209 99.955
 endloop
endfacet
facet normal 0.0 0.0 -1.0
 outer loop
  vertex 2.8300000000000143 1.6549999999998335 99.955
  vertex 1.7700000000000067 0.0999999999998209 99.955
  vertex 1.0300000000000142 1.2699999999998013 99.955
 endloop
endfacet
facet normal -1.0 0.0 0.0
 outer loop
  vertex 0.07000000000001044 0.07000000000001183 99.93
  vertex 0.07000000000001044 0.07000000000001183 99.95
  vertex 0.07000000000001044 1.2699999999999882 99.95
 endloop
endfacet
facet normal -1.0 0.0 0.0
 outer loop
  vertex 0.07000000000001044 1.2699999999999882 99.93
  vertex 0.07000000000001044 0.07000000000001183 99.93
  vertex 0.07000000000001044 1.2699999999999882 99.95
 endloop
endfacet
facet normal 0.0 1.0 0.0
 outer loop
  vertex 0.07000000000001044 1.2699999999999882 99.93
  vertex 0.07000000000001044 1.2699999999999882 99.95
  vertex 0.9100009566231133 1.2699999999999882 99.95
 endloop
endfacet
facet normal 0.0 1.0 -0.0
 outer loop
  vertex 0.9100009566231133 1.2699999999999882 99.93
  vertex 0.07000000000001044 1.2699999999999882 99.93
  vertex 0.9100009566231133 1.2699999999999882 99.95
 endloop
endfacet
facet normal 1.0 0.0 -0.0
 outer loop
  vertex 0.9100009566231133 1.2699999999999882 99.93
  vertex 0.9100009566231133 1.2699999999999882 99.95
  vertex 0.9100009566231133 0.07000000000001183 99.95
 endloop
endfacet
facet normal 1.0 0.0 0.0
 outer loop
  vertex 0.9100009566231133 0.07000000000001183 99.93
  vertex 0.9100009566231133 1.2699999999999882 99.93
  vertex 0.9100009566231133 0.07000000000001183 99.95
 endloop
endfacet
facet normal 0.0 -1.0 0.0
 outer loop
  vertex 0.9100009566231133 0.07000000000001183 99.93
  vertex 0.9100009566231133 0.07000000000001183 99.95
  vertex 0.07000000000001044 0.07000000000001183 99.95
 endloop
endfacet
facet normal 0.0 -1.0 0.0
 outer loop
  vertex 0.07000000000001044 0.07000000000001183 99.93
  vertex 0.9100009566231133 0.07000000000001183 99.93
  vertex 0.07000000000001044 0.07000000000001183 99.95
 endloop
endfacet
facet normal -0.0 0.0 1.0
 outer loop
  vertex 0.07000000000001044 1.2699999999999882 99.95
  vertex 0.07000000000001044 0.07000000000001183 99.95
  vertex 0.9100009566231133 1.2699999999999882 99.95
 endloop
endfacet
facet normal 0.0 0.0 1.0
 outer loop
  vertex 0.07000000000001044 0.07000000000001183 99.95
  vertex 0.9100009566231133 0.07000000000001183 99.95
  vertex 0.9100009566231133 1.2699999999999882 99.95
 endloop
endfacet
facet normal -0.0 0.0 -1.0
 outer loop
  vertex 0.9100009566231133 1.2699999999999882 99.93
  vertex 0.07000000000001044 0.07000000000001183 99.93
  vertex 0.07000000000001044 1.2699999999999882 99.93
 endloop
endfacet
facet normal 0.0 -0.0 -1.0
 outer loop
  vertex 0.9100009566231133 1.2699999999999882 99.93
  vertex 0.9100009566231133 0.07000000000001183 99.93
  vertex 0.07000000000001044 0.07000000000001183 99.93
 endloop
endfacet
facet normal -1.0 0.0 0.0
 outer loop
  vertex 0.05000000000000393 0.04999999999983784 99.84
  vertex 0.05000000000000393 0.04999999999983784 99.93
  vertex 0.05000000000000393 1.2899999999997824 99.93
 endloop
endfacet
facet normal -1.0 0.0 0.0
 outer loop
  vertex 0.05000000000000393 1.2899999999997824 99.84
  vertex 0.05000000000000393 0.04999999999983784 99.84
  vertex 0.05000000000000393 1.2899999999997824 99.93
 endloop
endfacet
facet normal 0.0 1.0 0.0
 outer loop
  vertex 0.05000000000000393 1.2899999999997824 99.84
  vertex 0.05000000000000393 1.2899999999997824 99.93
  vertex 0.9599990433769103 1.2899999999997824 99.93
 endloop
endfacet
facet normal 0.0 1.0 -0.0
 outer loop
  vertex 0.9599990433769103 1.2899999999997824 99.84
  vertex 0.05000000000000393 1.2899999999997824 99.84
  vertex 0.9599990433769103 1.2899999999997824 99.93
 endloop
endfacet
facet normal 1.0 0.0 -0.0
 outer loop
  vertex 0.9599990433769103 1.2899999999997824 99.84
  vertex 0.9599990433769103 1.2899999999997824 99.93
  vertex 0.9599990433769103 0.9999988846666379 99.93
 endloop
endfacet
facet normal 1.0 0.0 0.0
 outer loop
  vertex 0.9599990433769103 0.9999988846666379 99.84
  vertex 0.9599990433769103 1.2899999999997824 99.84
  vertex 0.9599990433769103 0.9999988846666379 99.93
 endloop
endfacet
facet normal 0.0 1.0 0.0
 outer loop
  vertex 0.9599990433769103 0.9999988846666379 99.84
  vertex 0.9599990433769103 0.9999988846666379 99.93
  vertex 0.9800009566231155 0.9999988846666379 99.93
 endloop
endfacet
facet normal 0.0 1.0 -0.0
 outer loop
  vertex 0.9800009566231155 0.9999988846666379 99.84
  vertex 0.9599990433769103 0.9999988846666379 99.84
  vertex 0.9800009566231155 0.9999988846666379 99.93
 endloop
endfacet
facet normal 1.0 -8.24256487979286e-15 0.0
 outer loop
  vertex 0.9800009566231155 0.9999988846666379 99.84
  vertex 0.9800009566231155 0.9999988846666379 99.93
  vertex 0.98000095662311 0.3399988846666403 99.93
 endloop
endfacet
facet normal 1.0 -8.24256487979286e-15 0.0
 outer loop
  vertex 0.98000095662311 0.3399988846666403 99.84
  vertex 0.9800009566231155 0.9999988846666379 99.84
  vertex 0.98000095662311 0.3399988846666403 99.93
 endloop
endfacet
facet normal -8.325876212137476e-15 -1.0 0.0
 outer loop
  vertex 0.98000095662311 0.3399988846666403 99.84
  vertex 0.98000095662311 0.3399988846666403 99.93
  vertex 0.9599990433769101 0.33999888466664047 99.93
 endloop
endfacet
facet normal -8.325876212137476e-15 -1.0 0.0
 outer loop
  vertex 0.9599990433769101 0.33999888466664047 99.84
  vertex 0.98000095662311 0.3399988846666403 99.84
  vertex 0.9599990433769101 0.33999888466664047 99.93
 endloop
endfacet
facet normal 1.0 0.0 -0.0
 outer loop
  vertex 0.9599990433769101 0.33999888466664047 99.84
  vertex 0.9599990433769101 0.33999888466664047 99.93
  vertex 0.9599990433769101 0.04999999999983784 99.93
 endloop
endfacet
facet normal 1.0 0.0 0.0
 outer loop
  vertex 0.9599990433769101 0.04999999999983784 99.84
  vertex 0.9599990433769101 0.33999888466664047 99.84
  vertex 0.9599990433769101 0.04999999999983784 99.93
 endloop
endfacet
facet normal 0.0 -1.0 0.0
 outer loop
  vertex 0.9599990433769101 0.04999999999983784 99.84
  vertex 0.9599990433769101 0.04999999999983784 99.93
  vertex 0.05000000000000393 0.04999999999983784 99.93
 endloop
endfacet
facet normal 0.0 -1.0 0.0
 outer loop
  vertex 0.05000000000000393 0.04999999999983784 99.84
  vertex 0.9599990433769101 0.04999999999983784 99.84
  vertex 0.05000000000000393 0.04999999999983784 99.93
 endloop
endfacet
facet normal 0.0 0.0 1.0
 outer loop
  vertex 0.05000000000000393 0.04999999999983784 99.93
  vertex 0.9599990433769101 0.04999999999983784 99.93
  vertex 0.9599990433769101 0.33999888466664047 99.93
 endloop
endfacet
facet normal 0.0 0.0 1.0
 outer loop
  vertex 0.05000000000000393 1.2899999999997824 99.93
  vertex 0.05000000000000393 0.04999999999983784 99.93
  vertex 0.9599990433769103 0.9999988846666379 99.93
 endloop
endfacet
facet normal 0.0 0.0 1.0
 outer loop
  vertex 0.05000000000000393 0.04999999999983784 99.93
  vertex 0.9599990433769101 0.33999888466664047 99.93
  vertex 0.9599990433769103 0.9999988846666379 99.93
 endloop
endfacet
facet normal -0.0 0.0 1.0
 outer loop
  vertex 0.9599990433769101 0.33999888466664047 99.93
  vertex 0.98000095662311 0.3399988846666403 99.93
  vertex 0.9800009566231155 0.9999988846666379 99.93
 endloop
endfacet
facet normal -0.0 0.0 1.0
 outer loop
  vertex 0.9599990433769103 0.9999988846666379 99.93
  vertex 0.9599990433769101 0.33999888466664047 99.93
  vertex 0.9800009566231155 0.9999988846666379 99.93
 endloop
endfacet
facet normal -0.0 0.0 1.0
 outer loop
  vertex 0.05000000000000393 1.2899999999997824 99.93
  vertex 0.9599990433769103 0.9999988846666379 99.93
  vertex 0.9599990433769103 1.2899999999997824 99.93
 endloop
endfacet
facet normal 0.0 -0.0 -1.0
 outer loop
  vertex 0.9599990433769101 0.33999888466664047 99.84
  vertex 0.9599990433769101 0.04999999999983784 99.84
  vertex 0.05000000000000393 0.04999999999983784 99.84
 endloop
endfacet
facet normal -0.0 0.0 -1.0
 outer loop
  vertex 0.9599990433769103 0.9999988846666379 99.84
  vertex 0.05000000000000393 0.04999999999983784 99.84
  vertex 0.05000000000000393 1.2899999999997824 99.84
 endloop
endfacet
facet normal 0.0 0.0 -1.0
 outer loop
  vertex 0.9599990433769103 0.9999988846666379 99.84
  vertex 0.9599990433769101 0.33999888466664047 99.84
  vertex 0.05000000000000393 0.04999999999983784 99.84
 endloop
endfacet
facet normal 0.0 0.0 -1.0
 outer loop
  vertex 0.9800009566231155 0.9999988846666379 99.84
  vertex 0.98000095662311 0.3399988846666403 99.84
  vertex 0.9599990433769101 0.33999888466664047 99.84
 endloop
endfacet
facet normal -0.0 0.0 -1.0
 outer loop
  vertex 0.9800009566231155 0.9999988846666379 99.84
  vertex 0.9599990433769101 0.33999888466664047 99.84
  vertex 0.9599990433769103 0.9999988846666379 99.84
 endloop
endfacet
facet normal -0.0 -0.0 -1.0
 outer loop
  vertex 0.9599990433769103 1.2899999999997824 99.84
  vertex 0.9599990433769103 0.9999988846666379 99.84
  vertex 0.05000000000000393 1.2899999999997824 99.84
 endloop
endfacet
facet normal -1.0 0.0 0.0
 outer loop
  vertex 0.5900009566231359 0.7399999999999985 99.76
  vertex 0.5900009566231359 0.7399999999999985 99.84
  vertex 0.5900009566231359 1.3400000000000016 99.84
 endloop
endfacet
facet normal -1.0 0.0 0.0
 outer loop
  vertex 0.5900009566231359 1.3400000000000016 99.76
  vertex 0.5900009566231359 0.7399999999999985 99.76
  vertex 0.5900009566231359 1.3400000000000016 99.84
 endloop
endfacet
facet normal 0.0 1.0 0.0
 outer loop
  vertex 0.5900009566231359 1.3400000000000016 99.76
  vertex 0.5900009566231359 1.3400000000000016 99.84
  vertex 0.940000956623136 1.3400000000000016 99.84
 endloop
endfacet
facet normal 0.0 1.0 -0.0
 outer loop
  vertex 0.940000956623136 1.3400000000000016 99.76
  vertex 0.5900009566231359 1.3400000000000016 99.76
  vertex 0.940000956623136 1.3400000000000016 99.84
 endloop
endfacet
facet normal 1.0 0.0 -0.0
 outer loop
  vertex 0.940000956623136 1.3400000000000016 99.76
  vertex 0.940000956623136 1.3400000000000016 99.84
  vertex 0.940000956623136 0.7399999999999985 99.84
 endloop
endfacet
facet normal 1.0 0.0 0.0
 outer loop
  vertex 0.940000956623136 0.7399999999999985 99.76
  vertex 0.940000956623136 1.3400000000000016 99.76
  vertex 0.940000956623136 0.7399999999999985 99.84
 endloop
endfacet
facet normal 0.0 -1.0 0.0
 outer loop
  vertex 0.940000956623136 0.7399999999999985 99.76
  vertex 0.940000956623136 0.7399999999999985 99.84
  vertex 0.5900009566231359 0.7399999999999985 99.84
 endloop
endfacet
facet normal 0.0 -1.0 0.0
 outer loop
  vertex 0.5900009566231359 0.7399999999999985 99.76
  vertex 0.940000956623136 0.7399999999999985 99.76
  vertex 0.5900009566231359 0.7399999999999985 99.84
 endloop
endfacet
facet normal -0.0 0.0 1.0
 outer loop
  vertex 0.5900009566231359 1.3400000000000016 99.84
  vertex 0.5900009566231359 0.7399999999999985 99.84
  vertex 0.940000956623136 1.3400000000000016 99.84
 endloop
endfacet
facet normal 0.0 0.0 1.0
 outer loop
  vertex 0.5900009566231359 0.7399999999999985 99.84
  vertex 0.940000956623136 0.7399999999999985 99.84
  vertex 0.940000956623136 1.3400000000000016 99.84
 endloop
endfacet
facet normal -0.0 0.0 -1.0
 outer loop
  vertex 0.940000956623136 1.3400000000000016 99.76
  vertex 0.5900009566231359 0.7399999999999985 99.76
  vertex 0.5900009566231359 1.3400000000000016 99.76
 endloop
endfacet
facet normal 0.0 -0.0 -1.0
 outer loop
  vertex 0.940000956623136 1.3400000000000016 99.76
  vertex 0.940000956623136 0.7399999999999985 99.76
  vertex 0.5900009566231359 0.7399999999999985 99.76
 endloop
endfacet
facet normal 0.0 -1.0 0.0
 outer loop
  vertex 1.7500000000000002 0.0700000000000001 100.0
  vertex 1.7500000000000002 0.0700000000000001 99.975
  vertex 2.83 0.0700000000000001 99.975
 endloop
endfacet
facet normal -0.0 -1.0 -0.0
 outer loop
  vertex 2.83 0.0700000000000001 100.0
  vertex 1.7500000000000002 0.0700000000000001 100.0
  vertex 2.83 0.0700000000000001 99.975
 endloop
endfacet
facet normal 1.0 0.0 0.0
 outer loop
  vertex 2.83 0.0700000000000001 100.0
  vertex 2.83 0.0700000000000001 99.975
  vertex 2.83 0.1199999999999999 99.975
 endloop
endfacet
facet normal 1.0 0.0 0.0
 outer loop
  vertex 2.83 0.1199999999999999 100.0
  vertex 2.83 0.0700000000000001 100.0
  vertex 2.83 0.1199999999999999 99.975
 endloop
endfacet
facet normal 0.0 1.0 0.0
 outer loop
  vertex 2.83 0.1199999999999999 100.0
  vertex 2.83 0.1199999999999999 99.975
  vertex 1.7500000000000002 0.1199999999999999 99.975
 endloop
endfacet
facet normal -0.0 1.0 0.0
 outer loop
  vertex 1.7500000000000002 0.1199999999999999 100.0
  vertex 2.83 0.1199999999999999 100.0
  vertex 1.7500000000000002 0.1199999999999999 99.975
 endloop
endfacet
facet normal -1.0 0.0 -0.0
 outer loop
  vertex 1.7500000000000002 0.1199999999999999 100.0
  vertex 1.7500000000000002 0.1199999999999999 99.975
  vertex 1.7500000000000002 0.0700000000000001 99.975
 endloop
endfacet
facet normal -1.0 0.0 0.0
 outer loop
  vertex 1.7500000000000002 0.0700000000000001 100.0
  vertex 1.7500000000000002 0.1199999999999999 100.0
  vertex 1.7500000000000002 0.0700000000000001 99.975
 endloop
endfacet
facet normal 0.0 0.0 -1.0
 outer loop
  vertex 2.83 0.0700000000000001 99.975
  vertex 1.7500000000000002 0.0700000000000001 99.975
  vertex 2.83 0.1199999999999999 99.975
 endloop
endfacet
facet normal 0.0 0.0 -1.0
 outer loop
  vertex 1.7500000000000002 0.0700000000000001 99.975
  vertex 1.7500000000000002 0.1199999999999999 99.975
  vertex 2.83 0.1199999999999999 99.975
 endloop
endfacet
facet normal 0.0 0.0 1.0
 outer loop
  vertex 2.83 0.1199999999999999 100.0
  vertex 1.7500000000000002 0.0700000000000001 100.0
  vertex 2.83 0.0700000000000001 100.0
 endloop
endfacet
facet normal 0.0 0.0 1.0
 outer loop
  vertex 2.83 0.1199999999999999 100.0
  vertex 1.7500000000000002 0.1199999999999999 100.0
  vertex 1.7500000000000002 0.0700000000000001 100.0
 endloop
endfacet
facet normal -1.0 0.0 5.551115123126887e-15
 outer loop
  vertex 0.9100009566231135 0.07000000000001183 99.95
  vertex 0.9100009566231135 1.2699999999999882 99.95
  vertex 0.9100009566231134 1.2699999999999882 99.93
 endloop
endfacet
facet normal -1.0 0.0 5.551115123126887e-15
 outer loop
  vertex 0.9100009566231135 0.07000000000001183 99.95
  vertex 0.9100009566231134 1.2699999999999882 99.93
  vertex 0.9100009566231134 0.07000000000001183 99.93
 endloop
endfacet
facet normal 0.0 -1.0 0.0
 outer loop
  vertex 0.9599990433769113 0.07000000000001183 99.95500000000001
  vertex 0.9100009566231135 0.07000000000001183 99.95
  vertex 0.9100009566231134 0.07000000000001183 99.93
 endloop
endfacet
facet normal 0.0 -1.0 -0.0
 outer loop
  vertex 0.9599990433769113 0.07000000000001183 99.97500000000001
  vertex 0.9100009566231135 0.07000000000001183 99.95
  vertex 0.9599990433769113 0.07000000000001183 99.95500000000001
 endloop
endfacet
facet normal 1.0 0.0 0.0
 outer loop
  vertex 0.9599990433769113 1.2699999999999882 99.97500000000001
  vertex 0.9599990433769113 0.07000000000001183 99.97500000000001
  vertex 0.9599990433769113 0.07000000000001183 99.95500000000001
 endloop
endfacet
facet normal 1.0 0.0 0.0
 outer loop
  vertex 0.9599990433769113 1.2699999999999882 99.97500000000001
  vertex 0.9599990433769113 0.07000000000001183 99.95500000000001
  vertex 0.9599990433769113 1.2699999999999882 99.95500000000001
 endloop
endfacet
facet normal 0.0 1.0 0.0
 outer loop
  vertex 0.9100009566231135 1.2699999999999882 99.95
  vertex 0.9599990433769113 1.2699999999999882 99.97500000000001
  vertex 0.9599990433769113 1.2699999999999882 99.95500000000001
 endloop
endfacet
facet normal -0.0 1.0 0.0
 outer loop
  vertex 0.9100009566231135 1.2699999999999882 99.95
  vertex 0.9599990433769113 1.2699999999999882 99.95500000000001
  vertex 0.9100009566231134 1.2699999999999882 99.93
 endloop
endfacet
facet normal -0.4472272859421527 0.0 0.8944203456478481
 outer loop
  vertex 0.9599990433769113 1.2699999999999882 99.97500000000001
  vertex 0.9100009566231135 1.2699999999999882 99.95
  vertex 0.9100009566231135 0.07000000000001183 99.95
 endloop
endfacet
facet normal -0.4472272859421527 0.0 0.8944203456478481
 outer loop
  vertex 0.9599990433769113 1.2699999999999882 99.97500000000001
  vertex 0.9100009566231135 0.07000000000001183 99.95
  vertex 0.9599990433769113 0.07000000000001183 99.97500000000001
 endloop
endfacet
facet normal 0.4472272859421519 0.0 -0.8944203456478484
 outer loop
  vertex 0.9100009566231134 0.07000000000001183 99.93
  vertex 0.9100009566231134 1.2699999999999882 99.93
  vertex 0.9599990433769113 1.2699999999999882 99.95500000000001
 endloop
endfacet
facet normal 0.4472272859421519 0.0 -0.8944203456478484
 outer loop
  vertex 0.9599990433769113 0.07000000000001183 99.95500000000001
  vertex 0.9100009566231134 0.07000000000001183 99.93
  vertex 0.9599990433769113 1.2699999999999882 99.95500000000001
 endloop
endfacet
facet normal -1.0 0.0 0.0
 outer loop
  vertex 0.9599990433769089 0.33999888466684536 99.97500000000001
  vertex 0.9599990433769089 0.9999988846668428 99.97500000000001
  vertex 0.9599990433769089 0.9999988846668428 99.95500000000001
 endloop
endfacet
facet normal -1.0 0.0 0.0
 outer loop
  vertex 0.9599990433769089 0.33999888466684536 99.97500000000001
  vertex 0.9599990433769089 0.9999988846668428 99.95500000000001
  vertex 0.9599990433769089 0.33999888466684536 99.95500000000001
 endloop
endfacet
facet normal -0.0 -1.0 0.0
 outer loop
  vertex 0.9800009566231129 0.33999888466684536 99.97500000000001
  vertex 0.9599990433769089 0.33999888466684536 99.97500000000001
  vertex 0.9599990433769089 0.33999888466684536 99.95500000000001
 endloop
endfacet
facet normal 0.0 -1.0 -0.0
 outer loop
  vertex 0.9800009566231129 0.33999888466684536 99.97500000000001
  vertex 0.9599990433769089 0.33999888466684536 99.95500000000001
  vertex 0.9800009566231129 0.33999888466684536 99.95500000000001
 endloop
endfacet
facet normal 1.0 0.0 0.0
 outer loop
  vertex 0.9800009566231129 0.9999988846668428 99.97500000000001
  vertex 0.9800009566231129 0.33999888466684536 99.97500000000001
  vertex 0.9800009566231129 0.33999888466684536 99.95500000000001
 endloop
endfacet
facet normal 1.0 0.0 0.0
 outer loop
  vertex 0.9800009566231129 0.9999988846668428 99.97500000000001
  vertex 0.9800009566231129 0.33999888466684536 99.95500000000001
  vertex 0.9800009566231129 0.9999988846668428 99.95500000000001
 endloop
endfacet
facet normal -0.0 1.0 0.0
 outer loop
  vertex 0.9599990433769089 0.9999988846668428 99.97500000000001
  vertex 0.9800009566231129 0.9999988846668428 99.97500000000001
  vertex 0.9800009566231129 0.9999988846668428 99.95500000000001
 endloop
endfacet
facet normal 0.0 1.0 0.0
 outer loop
  vertex 0.9599990433769089 0.9999988846668428 99.97500000000001
  vertex 0.9800009566231129 0.9999988846668428 99.95500000000001
  vertex 0.9599990433769089 0.9999988846668428 99.95500000000001
 endloop
endfacet
facet normal 0.0 0.0 1.0
 outer loop
  vertex 0.9800009566231129 0.9999988846668428 99.97500000000001
  vertex 0.9599990433769089 0.9999988846668428 99.97500000000001
  vertex 0.9599990433769089 0.33999888466684536 99.97500000000001
 endloop
endfacet
facet normal 0.0 0.0 1.0
 outer loop
  vertex 0.9800009566231129 0.9999988846668428 99.97500000000001
  vertex 0.9599990433769089 0.33999888466684536 99.97500000000001
  vertex 0.9800009566231129 0.33999888466684536 99.97500000000001
 endloop
endfacet
facet normal 0.0 0.0 -1.0
 outer loop
  vertex 0.9599990433769089 0.33999888466684536 99.95500000000001
  vertex 0.9599990433769089 0.9999988846668428 99.95500000000001
  vertex 0.9800009566231129 0.9999988846668428 99.95500000000001
 endloop
endfacet
facet normal 0.0 0.0 -1.0
 outer loop
  vertex 0.9800009566231129 0.33999888466684536 99.95500000000001
  vertex 0.9599990433769089 0.33999888466684536 99.95500000000001
  vertex 0.9800009566231129 0.9999988846668428 99.95500000000001
 endloop
endfacet
endsolid
