solid
facet normal -1.0 0.0 0.0
 outer loop
  vertex 959.9990433769091 999.9988846666415 0.0
  vertex 959.9990433769091 999.9988846666415 115.0
  vertex 959.9990433769091 1289.9999999998415 115.0
 endloop
endfacet
facet normal -1.0 0.0 0.0
 outer loop
  vertex 959.9990433769091 1289.9999999998415 0.0
  vertex 959.9990433769091 999.9988846666415 0.0
  vertex 959.9990433769091 1289.9999999998415 115.0
 endloop
endfacet
facet normal -4.5473865061649036e-15 1.0 0.0
 outer loop
  vertex 959.9990433769091 1289.9999999998415 0.0
  vertex 959.9990433769091 1289.9999999998415 115.0
  vertex 1010.0000000000114 1289.9999999998417 115.0
 endloop
endfacet
facet normal -4.5473865061649036e-15 1.0 0.0
 outer loop
  vertex 1010.0000000000114 1289.9999999998417 0.0
  vertex 959.9990433769091 1289.9999999998415 0.0
  vertex 1010.0000000000114 1289.9999999998417 115.0
 endloop
endfacet
facet normal -1.0 4.8009644308114434e-15 0.0
 outer loop
  vertex 1010.0000000000114 1289.9999999998417 0.0
  vertex 1010.0000000000114 1289.9999999998417 115.0
  vertex 1010.0000000000142 1881.9999999998472 115.0
 endloop
endfacet
facet normal -1.0 4.8009644308114434e-15 0.0
 outer loop
  vertex 1010.0000000000142 1881.9999999998472 0.0
  vertex 1010.0000000000114 1289.9999999998417 0.0
  vertex 1010.0000000000142 1881.9999999998472 115.0
 endloop
endfacet
facet normal 3.583606841224854e-15 1.0 -0.0
 outer loop
  vertex 1010.0000000000142 1881.9999999998472 0.0
  vertex 1010.0000000000142 1881.9999999998472 115.0
  vertex 2850.0000000000136 1881.9999999998406 115.0
 endloop
endfacet
facet normal 3.583606841224854e-15 1.0 -0.0
 outer loop
  vertex 2850.0000000000136 1881.9999999998406 0.0
  vertex 1010.0000000000142 1881.9999999998472 0.0
  vertex 2850.0000000000136 1881.9999999998406 115.0
 endloop
endfacet
facet normal 1.0 -4.468041657181425e-15 0.0
 outer loop
  vertex 2850.0000000000136 1881.9999999998406 0.0
  vertex 2850.0000000000136 1881.9999999998406 115.0
  vertex 2850.0000000000055 49.99999999984417 115.0
 endloop
endfacet
facet normal 1.0 -4.468041657181425e-15 0.0
 outer loop
  vertex 2850.0000000000055 49.99999999984417 0.0
  vertex 2850.0000000000136 1881.9999999998406 0.0
  vertex 2850.0000000000055 49.99999999984417 115.0
 endloop
endfacet
facet normal 1.7030460126032294e-15 -1.0 0.0
 outer loop
  vertex 2850.0000000000055 49.99999999984417 0.0
  vertex 2850.0000000000055 49.99999999984417 115.0
  vertex 959.999043376909 49.99999999984095 115.0
 endloop
endfacet
facet normal 1.7030460126032294e-15 -1.0 0.0
 outer loop
  vertex 959.999043376909 49.99999999984095 0.0
  vertex 2850.0000000000055 49.99999999984417 0.0
  vertex 959.999043376909 49.99999999984095 115.0
 endloop
endfacet
facet normal -1.0 0.0 0.0
 outer loop
  vertex 959.999043376909 49.99999999984095 0.0
  vertex 959.999043376909 49.99999999984095 115.0
  vertex 959.999043376909 339.9988846666442 115.0
 endloop
endfacet
facet normal -1.0 0.0 0.0
 outer loop
  vertex 959.999043376909 339.9988846666442 0.0
  vertex 959.999043376909 49.99999999984095 0.0
  vertex 959.999043376909 339.9988846666442 115.0
 endloop
endfacet
facet normal 2.273628004179083e-14 1.0 -0.0
 outer loop
  vertex 959.999043376909 339.9988846666442 0.0
  vertex 959.999043376909 339.9988846666442 115.0
  vertex 980.0000000000068 339.99888466664373 115.0
 endloop
endfacet
facet normal 2.273628004179083e-14 1.0 -0.0
 outer loop
  vertex 980.0000000000068 339.99888466664373 0.0
  vertex 959.999043376909 339.9988846666442 0.0
  vertex 980.0000000000068 339.99888466664373 115.0
 endloop
endfacet
facet normal -1.0 8.268133652481194e-15 0.0
 outer loop
  vertex 980.0000000000068 339.99888466664373 0.0
  vertex 980.0000000000068 339.99888466664373 115.0
  vertex 980.0000000000123 999.9988846666414 115.0
 endloop
endfacet
facet normal -1.0 8.268133652481194e-15 0.0
 outer loop
  vertex 980.0000000000123 999.9988846666414 0.0
  vertex 980.0000000000068 339.99888466664373 0.0
  vertex 980.0000000000123 999.9988846666414 115.0
 endloop
endfacet
facet normal -5.68407001044619e-15 -1.0 0.0
 outer loop
  vertex 980.0000000000123 999.9988846666414 0.0
  vertex 980.0000000000123 999.9988846666414 115.0
  vertex 959.9990433769091 999.9988846666415 115.0
 endloop
endfacet
facet normal -5.68407001044619e-15 -1.0 0.0
 outer loop
  vertex 959.9990433769091 999.9988846666415 0.0
  vertex 980.0000000000123 999.9988846666414 0.0
  vertex 959.9990433769091 999.9988846666415 115.0
 endloop
endfacet
facet normal 0.0 0.0 1.0
 outer loop
  vertex 959.999043376909 339.9988846666442 115.0
  vertex 959.999043376909 49.99999999984095 115.0
  vertex 980.0000000000068 339.99888466664373 115.0
 endloop
endfacet
facet normal -0.0 0.0 1.0
 outer loop
  vertex 959.9990433769091 999.9988846666415 115.0
  vertex 980.0000000000123 999.9988846666414 115.0
  vertex 959.9990433769091 1289.9999999998415 115.0
 endloop
endfacet
facet normal -0.0 0.0 1.0
 outer loop
  vertex 959.9990433769091 1289.9999999998415 115.0
  vertex 980.0000000000123 999.9988846666414 115.0
  vertex 1010.0000000000114 1289.9999999998417 115.0
 endloop
endfacet
facet normal 0.0 0.0 1.0
 outer loop
  vertex 980.0000000000123 999.9988846666414 115.0
  vertex 980.0000000000068 339.99888466664373 115.0
  vertex 2850.0000000000055 49.99999999984417 115.0
 endloop
endfacet
facet normal 0.0 0.0 1.0
 outer loop
  vertex 980.0000000000068 339.99888466664373 115.0
  vertex 959.999043376909 49.99999999984095 115.0
  vertex 2850.0000000000055 49.99999999984417 115.0
 endloop
endfacet
facet normal 0.0 0.0 1.0
 outer loop
  vertex 1010.0000000000142 1881.9999999998472 115.0
  vertex 1010.0000000000114 1289.9999999998417 115.0
  vertex 2850.0000000000136 1881.9999999998406 115.0
 endloop
endfacet
facet normal -0.0 0.0 1.0
 outer loop
  vertex 980.0000000000123 999.9988846666414 115.0
  vertex 2850.0000000000055 49.99999999984417 115.0
  vertex 2850.0000000000136 1881.9999999998406 115.0
 endloop
endfacet
facet normal -0.0 0.0 1.0
 outer loop
  vertex 1010.0000000000114 1289.9999999998417 115.0
  vertex 980.0000000000123 999.9988846666414 115.0
  vertex 2850.0000000000136 1881.9999999998406 115.0
 endloop
endfacet
facet normal -0.0 0.0 -1.0
 outer loop
  vertex 980.0000000000068 339.99888466664373 0.0
  vertex 959.999043376909 49.99999999984095 0.0
  vertex 959.999043376909 339.9988846666442 0.0
 endloop
endfacet
facet normal 0.0 0.0 -1.0
 outer loop
  vertex 959.9990433769091 1289.9999999998415 0.0
  vertex 980.0000000000123 999.9988846666414 0.0
  vertex 959.9990433769091 999.9988846666415 0.0
 endloop
endfacet
facet normal 0.0 0.0 -1.0
 outer loop
  vertex 1010.0000000000114 1289.9999999998417 0.0
  vertex 980.0000000000123 999.9988846666414 0.0
  vertex 959.9990433769091 1289.9999999998415 0.0
 endloop
endfacet
facet normal 0.0 0.0 -1.0
 outer loop
  vertex 2850.0000000000055 49.99999999984417 0.0
  vertex 980.0000000000068 339.99888466664373 0.0
  vertex 980.0000000000123 999.9988846666414 0.0
 endloop
endfacet
facet normal -0.0 0.0 -1.0
 outer loop
  vertex 2850.0000000000055 49.99999999984417 0.0
  vertex 959.999043376909 49.99999999984095 0.0
  vertex 980.0000000000068 339.99888466664373 0.0
 endloop
endfacet
facet normal -0.0 0.0 -1.0
 outer loop
  vertex 2850.0000000000136 1881.9999999998406 0.0
  vertex 1010.0000000000114 1289.9999999998417 0.0
  vertex 1010.0000000000142 1881.9999999998472 0.0
 endloop
endfacet
facet normal 0.0 0.0 -1.0
 outer loop
  vertex 2850.0000000000136 1881.9999999998406 0.0
  vertex 2850.0000000000055 49.99999999984417 0.0
  vertex 980.0000000000123 999.9988846666414 0.0
 endloop
endfacet
facet normal 0.0 0.0 -1.0
 outer loop
  vertex 2850.0000000000136 1881.9999999998406 0.0
  vertex 980.0000000000123 999.9988846666414 0.0
  vertex 1010.0000000000114 1289.9999999998417 0.0
 endloop
endfacet
facet normal -1.0 0.0 0.0
 outer loop
  vertex 959.9990433769103 999.9988846666423 0.0
  vertex 959.9990433769103 999.9988846666423 20.0
  vertex 959.9990433769103 1269.9999999998015 20.0
 endloop
endfacet
facet normal -1.0 0.0 0.0
 outer loop
  vertex 959.9990433769103 1269.9999999998015 0.0
  vertex 959.9990433769103 999.9988846666423 0.0
  vertex 959.9990433769103 1269.9999999998015 20.0
 endloop
endfacet
facet normal 3.248150974099499e-15 1.0 -0.0
 outer loop
  vertex 959.9990433769103 1269.9999999998015 0.0
  vertex 959.9990433769103 1269.9999999998015 20.0
  vertex 1030.0000000000143 1269.9999999998013 20.0
 endloop
endfacet
facet normal 3.248150974099499e-15 1.0 -0.0
 outer loop
  vertex 1030.0000000000143 1269.9999999998013 0.0
  vertex 959.9990433769103 1269.9999999998015 0.0
  vertex 1030.0000000000143 1269.9999999998013 20.0
 endloop
endfacet
facet normal -1.0 1.1811619503543497e-15 0.0
 outer loop
  vertex 1030.0000000000143 1269.9999999998013 0.0
  vertex 1030.0000000000143 1269.9999999998013 20.0
  vertex 1030.0000000000148 1654.9999999998347 20.0
 endloop
endfacet
facet normal -1.0 1.1811619503543497e-15 0.0
 outer loop
  vertex 1030.0000000000148 1654.9999999998347 0.0
  vertex 1030.0000000000143 1269.9999999998013 0.0
  vertex 1030.0000000000148 1654.9999999998347 20.0
 endloop
endfacet
facet normal 6.315935428978671e-16 1.0 -0.0
 outer loop
  vertex 1030.0000000000148 1654.9999999998347 0.0
  vertex 1030.0000000000148 1654.9999999998347 20.0
  vertex 2830.000000000014 1654.9999999998336 20.0
 endloop
endfacet
facet normal 6.315935428978671e-16 1.0 -0.0
 outer loop
  vertex 2830.000000000014 1654.9999999998336 0.0
  vertex 1030.0000000000148 1654.9999999998347 0.0
  vertex 2830.000000000014 1654.9999999998336 20.0
 endloop
endfacet
facet normal 1.0 -5.263956473283749e-15 0.0
 outer loop
  vertex 2830.000000000014 1654.9999999998336 0.0
  vertex 2830.000000000014 1654.9999999998336 20.0
  vertex 2830.000000000006 99.9999999998099 20.0
 endloop
endfacet
facet normal 1.0 -5.263956473283749e-15 0.0
 outer loop
  vertex 2830.000000000006 99.9999999998099 0.0
  vertex 2830.000000000014 1654.9999999998336 0.0
  vertex 2830.000000000006 99.9999999998099 20.0
 endloop
endfacet
facet normal -1.0376605235439961e-14 -1.0 0.0
 outer loop
  vertex 2830.000000000006 99.9999999998099 0.0
  vertex 2830.000000000006 99.9999999998099 20.0
  vertex 1770.0000000000066 99.9999999998209 20.0
 endloop
endfacet
facet normal -1.0376605235439961e-14 -1.0 0.0
 outer loop
  vertex 1770.0000000000066 99.9999999998209 0.0
  vertex 2830.000000000006 99.9999999998099 0.0
  vertex 1770.0000000000066 99.9999999998209 20.0
 endloop
endfacet
facet normal 1.0 0.0 -0.0
 outer loop
  vertex 1770.0000000000066 99.9999999998209 0.0
  vertex 1770.0000000000066 99.9999999998209 20.0
  vertex 1770.0000000000066 69.99999999981965 20.0
 endloop
endfacet
facet normal 1.0 0.0 0.0
 outer loop
  vertex 1770.0000000000066 69.99999999981965 0.0
  vertex 1770.0000000000066 99.9999999998209 0.0
  vertex 1770.0000000000066 69.99999999981965 20.0
 endloop
endfacet
facet normal -2.8070790976736074e-16 -1.0 0.0
 outer loop
  vertex 1770.0000000000066 69.99999999981965 0.0
  vertex 1770.0000000000066 69.99999999981965 20.0
  vertex 959.9990433769101 69.99999999981988 20.0
 endloop
endfacet
facet normal -2.8070790976736074e-16 -1.0 0.0
 outer loop
  vertex 959.9990433769101 69.99999999981988 0.0
  vertex 1770.0000000000066 69.99999999981965 0.0
  vertex 959.9990433769101 69.99999999981988 20.0
 endloop
endfacet
facet normal -1.0 8.421282025805705e-16 0.0
 outer loop
  vertex 959.9990433769101 69.99999999981988 0.0
  vertex 959.9990433769101 69.99999999981988 20.0
  vertex 959.9990433769103 339.9988846666448 20.0
 endloop
endfacet
facet normal -1.0 8.421282025805705e-16 0.0
 outer loop
  vertex 959.9990433769103 339.9988846666448 0.0
  vertex 959.9990433769101 69.99999999981988 0.0
  vertex 959.9990433769103 339.9988846666448 20.0
 endloop
endfacet
facet normal 1.989329356286895e-14 1.0 -0.0
 outer loop
  vertex 959.9990433769103 339.9988846666448 0.0
  vertex 959.9990433769103 339.9988846666448 20.0
  vertex 980.0009566231084 339.9988846666444 20.0
 endloop
endfacet
facet normal 1.989329356286895e-14 1.0 -0.0
 outer loop
  vertex 980.0009566231084 339.9988846666444 0.0
  vertex 959.9990433769103 339.9988846666448 0.0
  vertex 980.0009566231084 339.9988846666444 20.0
 endloop
endfacet
facet normal -1.0 8.784892005761268e-15 0.0
 outer loop
  vertex 980.0009566231084 339.9988846666444 0.0
  vertex 980.0009566231084 339.9988846666444 20.0
  vertex 980.0009566231142 999.9988846666422 20.0
 endloop
endfacet
facet normal -1.0 8.784892005761268e-15 0.0
 outer loop
  vertex 980.0009566231142 999.9988846666422 0.0
  vertex 980.0009566231084 339.9988846666444 0.0
  vertex 980.0009566231142 999.9988846666422 20.0
 endloop
endfacet
facet normal -5.683798160818052e-15 -1.0 0.0
 outer loop
  vertex 980.0009566231142 999.9988846666422 0.0
  vertex 980.0009566231142 999.9988846666422 20.0
  vertex 959.9990433769103 999.9988846666423 20.0
 endloop
endfacet
facet normal -5.683798160818052e-15 -1.0 0.0
 outer loop
  vertex 959.9990433769103 999.9988846666423 0.0
  vertex 980.0009566231142 999.9988846666422 0.0
  vertex 959.9990433769103 999.9988846666423 20.0
 endloop
endfacet
facet normal 0.0 0.0 1.0
 outer loop
  vertex 959.9990433769103 339.9988846666448 20.0
  vertex 959.9990433769101 69.99999999981988 20.0
  vertex 980.0009566231084 339.9988846666444 20.0
 endloop
endfacet
facet normal -0.0 0.0 1.0
 outer loop
  vertex 959.9990433769101 69.99999999981988 20.0
  vertex 1770.0000000000066 69.99999999981965 20.0
  vertex 1770.0000000000066 99.9999999998209 20.0
 endloop
endfacet
facet normal 0.0 0.0 1.0
 outer loop
  vertex 980.0009566231084 339.9988846666444 20.0
  vertex 959.9990433769101 69.99999999981988 20.0
  vertex 1770.0000000000066 99.9999999998209 20.0
 endloop
endfacet
facet normal -0.0 0.0 1.0
 outer loop
  vertex 980.0009566231084 339.9988846666444 20.0
  vertex 1770.0000000000066 99.9999999998209 20.0
  vertex 980.0009566231142 999.9988846666422 20.0
 endloop
endfacet
facet normal -0.0 0.0 1.0
 outer loop
  vertex 959.9990433769103 999.9988846666423 20.0
  vertex 980.0009566231142 999.9988846666422 20.0
  vertex 959.9990433769103 1269.9999999998015 20.0
 endloop
endfacet
facet normal 0.0 0.0 1.0
 outer loop
  vertex 959.9990433769103 1269.9999999998015 20.0
  vertex 980.0009566231142 999.9988846666422 20.0
  vertex 1030.0000000000143 1269.9999999998013 20.0
 endloop
endfacet
facet normal -0.0 0.0 1.0
 outer loop
  vertex 980.0009566231142 999.9988846666422 20.0
  vertex 1770.0000000000066 99.9999999998209 20.0
  vertex 1030.0000000000143 1269.9999999998013 20.0
 endloop
endfacet
facet normal 0.0 0.0 1.0
 outer loop
  vertex 1030.0000000000148 1654.9999999998347 20.0
  vertex 1030.0000000000143 1269.9999999998013 20.0
  vertex 2830.000000000014 1654.9999999998336 20.0
 endloop
endfacet
facet normal -0.0 0.0 1.0
 outer loop
  vertex 1770.0000000000066 99.9999999998209 20.0
  vertex 2830.000000000006 99.9999999998099 20.0
  vertex 2830.000000000014 1654.9999999998336 20.0
 endloop
endfacet
facet normal -0.0 0.0 1.0
 outer loop
  vertex 1030.0000000000143 1269.9999999998013 20.0
  vertex 1770.0000000000066 99.9999999998209 20.0
  vertex 2830.000000000014 1654.9999999998336 20.0
 endloop
endfacet
facet normal -0.0 0.0 -1.0
 outer loop
  vertex 980.0009566231084 339.9988846666444 0.0
  vertex 959.9990433769101 69.99999999981988 0.0
  vertex 959.9990433769103 339.9988846666448 0.0
 endloop
endfacet
facet normal 0.0 -0.0 -1.0
 outer loop
  vertex 1770.0000000000066 99.9999999998209 0.0
  vertex 1770.0000000000066 69.99999999981965 0.0
  vertex 959.9990433769101 69.99999999981988 0.0
 endloop
endfacet
facet normal -0.0 0.0 -1.0
 outer loop
  vertex 1770.0000000000066 99.9999999998209 0.0
  vertex 959.9990433769101 69.99999999981988 0.0
  vertex 980.0009566231084 339.9988846666444 0.0
 endloop
endfacet
facet normal 0.0 -0.0 -1.0
 outer loop
  vertex 980.0009566231142 999.9988846666422 0.0
  vertex 1770.0000000000066 99.9999999998209 0.0
  vertex 980.0009566231084 339.9988846666444 0.0
 endloop
endfacet
facet normal 0.0 0.0 -1.0
 outer loop
  vertex 959.9990433769103 1269.9999999998015 0.0
  vertex 980.0009566231142 999.9988846666422 0.0
  vertex 959.9990433769103 999.9988846666423 0.0
 endloop
endfacet
facet normal -0.0 0.0 -1.0
 outer loop
  vertex 1030.0000000000143 1269.9999999998013 0.0
  vertex 980.0009566231142 999.9988846666422 0.0
  vertex 959.9990433769103 1269.9999999998015 0.0
 endloop
endfacet
facet normal 0.0 -0.0 -1.0
 outer loop
  vertex 1030.0000000000143 1269.9999999998013 0.0
  vertex 1770.0000000000066 99.9999999998209 0.0
  vertex 980.0009566231142 999.9988846666422 0.0
 endloop
endfacet
facet normal -0.0 0.0 -1.0
 outer loop
  vertex 2830.000000000014 1654.9999999998336 0.0
  vertex 1030.0000000000143 1269.9999999998013 0.0
  vertex 1030.0000000000148 1654.9999999998347 0.0
 endloop
endfacet
facet normal 0.0 0.0 -1.0
 outer loop
  vertex 2830.000000000014 1654.9999999998336 0.0
  vertex 2830.000000000006 99.9999999998099 0.0
  vertex 1770.0000000000066 99.9999999998209 0.0
 endloop
endfacet
facet normal 0.0 0.0 -1.0
 outer loop
  vertex 2830.000000000014 1654.9999999998336 0.0
  vertex 1770.0000000000066 99.9999999998209 0.0
  vertex 1030.0000000000143 1269.9999999998013 0.0
 endloop
endfacet
facet normal -1.0 0.0 0.0
 outer loop
  vertex 70.00000000001044 70.00000000001182 0.0
  vertex 70.00000000001044 70.00000000001182 20.0
  vertex 70.00000000001044 1269.9999999999882 20.0
 endloop
endfacet
facet normal -1.0 0.0 0.0
 outer loop
  vertex 70.00000000001044 1269.9999999999882 0.0
  vertex 70.00000000001044 70.00000000001182 0.0
  vertex 70.00000000001044 1269.9999999999882 20.0
 endloop
endfacet
facet normal 0.0 1.0 0.0
 outer loop
  vertex 70.00000000001044 1269.9999999999882 0.0
  vertex 70.00000000001044 1269.9999999999882 20.0
  vertex 910.0009566231133 1269.9999999999882 20.0
 endloop
endfacet
facet normal 0.0 1.0 -0.0
 outer loop
  vertex 910.0009566231133 1269.9999999999882 0.0
  vertex 70.00000000001044 1269.9999999999882 0.0
  vertex 910.0009566231133 1269.9999999999882 20.0
 endloop
endfacet
facet normal 1.0 0.0 -0.0
 outer loop
  vertex 910.0009566231133 1269.9999999999882 0.0
  vertex 910.0009566231133 1269.9999999999882 20.0
  vertex 910.0009566231133 70.00000000001182 20.0
 endloop
endfacet
facet normal 1.0 0.0 0.0
 outer loop
  vertex 910.0009566231133 70.00000000001182 0.0
  vertex 910.0009566231133 1269.9999999999882 0.0
  vertex 910.0009566231133 70.00000000001182 20.0
 endloop
endfacet
facet normal 0.0 -1.0 0.0
 outer loop
  vertex 910.0009566231133 70.00000000001182 0.0
  vertex 910.0009566231133 70.00000000001182 20.0
  vertex 70.00000000001044 70.00000000001182 20.0
 endloop
endfacet
facet normal 0.0 -1.0 0.0
 outer loop
  vertex 70.00000000001044 70.00000000001182 0.0
  vertex 910.0009566231133 70.00000000001182 0.0
  vertex 70.00000000001044 70.00000000001182 20.0
 endloop
endfacet
facet normal -0.0 0.0 1.0
 outer loop
  vertex 70.00000000001044 1269.9999999999882 20.0
  vertex 70.00000000001044 70.00000000001182 20.0
  vertex 910.0009566231133 1269.9999999999882 20.0
 endloop
endfacet
facet normal 0.0 0.0 1.0
 outer loop
  vertex 70.00000000001044 70.00000000001182 20.0
  vertex 910.0009566231133 70.00000000001182 20.0
  vertex 910.0009566231133 1269.9999999999882 20.0
 endloop
endfacet
facet normal -0.0 0.0 -1.0
 outer loop
  vertex 910.0009566231133 1269.9999999999882 0.0
  vertex 70.00000000001044 70.00000000001182 0.0
  vertex 70.00000000001044 1269.9999999999882 0.0
 endloop
endfacet
facet normal 0.0 -0.0 -1.0
 outer loop
  vertex 910.0009566231133 1269.9999999999882 0.0
  vertex 910.0009566231133 70.00000000001182 0.0
  vertex 70.00000000001044 70.00000000001182 0.0
 endloop
endfacet
facet normal -1.0 0.0 0.0
 outer loop
  vertex 50.00000000000393 49.99999999983784 0.0
  vertex 50.00000000000393 49.99999999983784 90.0
  vertex 50.00000000000393 1289.9999999997824 90.0
 endloop
endfacet
facet normal -1.0 0.0 0.0
 outer loop
  vertex 50.00000000000393 1289.9999999997824 0.0
  vertex 50.00000000000393 49.99999999983784 0.0
  vertex 50.00000000000393 1289.9999999997824 90.0
 endloop
endfacet
facet normal 0.0 1.0 0.0
 outer loop
  vertex 50.00000000000393 1289.9999999997824 0.0
  vertex 50.00000000000393 1289.9999999997824 90.0
  vertex 959.9990433769103 1289.9999999997824 90.0
 endloop
endfacet
facet normal 0.0 1.0 -0.0
 outer loop
  vertex 959.9990433769103 1289.9999999997824 0.0
  vertex 50.00000000000393 1289.9999999997824 0.0
  vertex 959.9990433769103 1289.9999999997824 90.0
 endloop
endfacet
facet normal 1.0 0.0 -0.0
 outer loop
  vertex 959.9990433769103 1289.9999999997824 0.0
  vertex 959.9990433769103 1289.9999999997824 90.0
  vertex 959.9990433769103 999.9988846666379 90.0
 endloop
endfacet
facet normal 1.0 0.0 0.0
 outer loop
  vertex 959.9990433769103 999.9988846666379 0.0
  vertex 959.9990433769103 1289.9999999997824 0.0
  vertex 959.9990433769103 999.9988846666379 90.0
 endloop
endfacet
facet normal 0.0 1.0 0.0
 outer loop
  vertex 959.9990433769103 999.9988846666379 0.0
  vertex 959.9990433769103 999.9988846666379 90.0
  vertex 980.0009566231155 999.9988846666379 90.0
 endloop
endfacet
facet normal 0.0 1.0 -0.0
 outer loop
  vertex 980.0009566231155 999.9988846666379 0.0
  vertex 959.9990433769103 999.9988846666379 0.0
  vertex 980.0009566231155 999.9988846666379 90.0
 endloop
endfacet
facet normal 1.0 -8.268133652481197e-15 0.0
 outer loop
  vertex 980.0009566231155 999.9988846666379 0.0
  vertex 980.0009566231155 999.9988846666379 90.0
  vertex 980.00095662311 339.9988846666403 90.0
 endloop
endfacet
facet normal 1.0 -8.268133652481197e-15 0.0
 outer loop
  vertex 980.00095662311 339.9988846666403 0.0
  vertex 980.0009566231155 999.9988846666379 0.0
  vertex 980.00095662311 339.9988846666403 90.0
 endloop
endfacet
facet normal -8.525697241228773e-15 -1.0 0.0
 outer loop
  vertex 980.00095662311 339.9988846666403 0.0
  vertex 980.00095662311 339.9988846666403 90.0
  vertex 959.9990433769101 339.9988846666405 90.0
 endloop
endfacet
facet normal -8.525697241228773e-15 -1.0 0.0
 outer loop
  vertex 959.9990433769101 339.9988846666405 0.0
  vertex 980.00095662311 339.9988846666403 0.0
  vertex 959.9990433769101 339.9988846666405 90.0
 endloop
endfacet
facet normal 1.0 0.0 -0.0
 outer loop
  vertex 959.9990433769101 339.9988846666405 0.0
  vertex 959.9990433769101 339.9988846666405 90.0
  vertex 959.9990433769101 49.99999999983784 90.0
 endloop
endfacet
facet normal 1.0 0.0 0.0
 outer loop
  vertex 959.9990433769101 49.99999999983784 0.0
  vertex 959.9990433769101 339.9988846666405 0.0
  vertex 959.9990433769101 49.99999999983784 90.0
 endloop
endfacet
facet normal 0.0 -1.0 0.0
 outer loop
  vertex 959.9990433769101 49.99999999983784 0.0
  vertex 959.9990433769101 49.99999999983784 90.0
  vertex 50.00000000000393 49.99999999983784 90.0
 endloop
endfacet
facet normal 0.0 -1.0 0.0
 outer loop
  vertex 50.00000000000393 49.99999999983784 0.0
  vertex 959.9990433769101 49.99999999983784 0.0
  vertex 50.00000000000393 49.99999999983784 90.0
 endloop
endfacet
facet normal 0.0 0.0 1.0
 outer loop
  vertex 50.00000000000393 49.99999999983784 90.0
  vertex 959.9990433769101 49.99999999983784 90.0
  vertex 959.9990433769101 339.9988846666405 90.0
 endloop
endfacet
facet normal 0.0 0.0 1.0
 outer loop
  vertex 50.00000000000393 1289.9999999997824 90.0
  vertex 50.00000000000393 49.99999999983784 90.0
  vertex 959.9990433769103 999.9988846666379 90.0
 endloop
endfacet
facet normal 0.0 0.0 1.0
 outer loop
  vertex 50.00000000000393 49.99999999983784 90.0
  vertex 959.9990433769101 339.9988846666405 90.0
  vertex 959.9990433769103 999.9988846666379 90.0
 endloop
endfacet
facet normal -0.0 0.0 1.0
 outer loop
  vertex 959.9990433769101 339.9988846666405 90.0
  vertex 980.00095662311 339.9988846666403 90.0
  vertex 980.0009566231155 999.9988846666379 90.0
 endloop
endfacet
facet normal -0.0 0.0 1.0
 outer loop
  vertex 959.9990433769103 999.9988846666379 90.0
  vertex 959.9990433769101 339.9988846666405 90.0
  vertex 980.0009566231155 999.9988846666379 90.0
 endloop
endfacet
facet normal -0.0 0.0 1.0
 outer loop
  vertex 50.00000000000393 1289.9999999997824 90.0
  vertex 959.9990433769103 999.9988846666379 90.0
  vertex 959.9990433769103 1289.9999999997824 90.0
 endloop
endfacet
facet normal 0.0 -0.0 -1.0
 outer loop
  vertex 959.9990433769101 339.9988846666405 0.0
  vertex 959.9990433769101 49.99999999983784 0.0
  vertex 50.00000000000393 49.99999999983784 0.0
 endloop
endfacet
facet normal -0.0 0.0 -1.0
 outer loop
  vertex 959.9990433769103 999.9988846666379 0.0
  vertex 50.00000000000393 49.99999999983784 0.0
  vertex 50.00000000000393 1289.9999999997824 0.0
 endloop
endfacet
facet normal 0.0 0.0 -1.0
 outer loop
  vertex 959.9990433769103 999.9988846666379 0.0
  vertex 959.9990433769101 339.9988846666405 0.0
  vertex 50.00000000000393 49.99999999983784 0.0
 endloop
endfacet
facet normal 0.0 0.0 -1.0
 outer loop
  vertex 980.0009566231155 999.9988846666379 0.0
  vertex 980.00095662311 339.9988846666403 0.0
  vertex 959.9990433769101 339.9988846666405 0.0
 endloop
endfacet
facet normal -0.0 0.0 -1.0
 outer loop
  vertex 980.0009566231155 999.9988846666379 0.0
  vertex 959.9990433769101 339.9988846666405 0.0
  vertex 959.9990433769103 999.9988846666379 0.0
 endloop
endfacet
facet normal -0.0 -0.0 -1.0
 outer loop
  vertex 959.9990433769103 1289.9999999997824 0.0
  vertex 959.9990433769103 999.9988846666379 0.0
  vertex 50.00000000000393 1289.9999999997824 0.0
 endloop
endfacet
facet normal -1.0 0.0 0.0
 outer loop
  vertex 590.000956623136 739.9999999999985 0.0
  vertex 590.000956623136 739.9999999999985 80.0
  vertex 590.000956623136 1340.0000000000016 80.0
 endloop
endfacet
facet normal -1.0 0.0 0.0
 outer loop
  vertex 590.000956623136 1340.0000000000016 0.0
  vertex 590.000956623136 739.9999999999985 0.0
  vertex 590.000956623136 1340.0000000000016 80.0
 endloop
endfacet
facet normal 0.0 1.0 0.0
 outer loop
  vertex 590.000956623136 1340.0000000000016 0.0
  vertex 590.000956623136 1340.0000000000016 80.0
  vertex 940.000956623136 1340.0000000000016 80.0
 endloop
endfacet
facet normal 0.0 1.0 -0.0
 outer loop
  vertex 940.000956623136 1340.0000000000016 0.0
  vertex 590.000956623136 1340.0000000000016 0.0
  vertex 940.000956623136 1340.0000000000016 80.0
 endloop
endfacet
facet normal 1.0 0.0 -0.0
 outer loop
  vertex 940.000956623136 1340.0000000000016 0.0
  vertex 940.000956623136 1340.0000000000016 80.0
  vertex 940.000956623136 739.9999999999985 80.0
 endloop
endfacet
facet normal 1.0 0.0 0.0
 outer loop
  vertex 940.000956623136 739.9999999999985 0.0
  vertex 940.000956623136 1340.0000000000016 0.0
  vertex 940.000956623136 739.9999999999985 80.0
 endloop
endfacet
facet normal 0.0 -1.0 0.0
 outer loop
  vertex 940.000956623136 739.9999999999985 0.0
  vertex 940.000956623136 739.9999999999985 80.0
  vertex 590.000956623136 739.9999999999985 80.0
 endloop
endfacet
facet normal 0.0 -1.0 0.0
 outer loop
  vertex 590.000956623136 739.9999999999985 0.0
  vertex 940.000956623136 739.9999999999985 0.0
  vertex 590.000956623136 739.9999999999985 80.0
 endloop
endfacet
facet normal -0.0 0.0 1.0
 outer loop
  vertex 590.000956623136 1340.0000000000016 80.0
  vertex 590.000956623136 739.9999999999985 80.0
  vertex 940.000956623136 1340.0000000000016 80.0
 endloop
endfacet
facet normal 0.0 0.0 1.0
 outer loop
  vertex 590.000956623136 739.9999999999985 80.0
  vertex 940.000956623136 739.9999999999985 80.0
  vertex 940.000956623136 1340.0000000000016 80.0
 endloop
endfacet
facet normal -0.0 0.0 -1.0
 outer loop
  vertex 940.000956623136 1340.0000000000016 0.0
  vertex 590.000956623136 739.9999999999985 0.0
  vertex 590.000956623136 1340.0000000000016 0.0
 endloop
endfacet
facet normal 0.0 -0.0 -1.0
 outer loop
  vertex 940.000956623136 1340.0000000000016 0.0
  vertex 940.000956623136 739.9999999999985 0.0
  vertex 590.000956623136 739.9999999999985 0.0
 endloop
endfacet
facet normal 0.0 -1.0 0.0
 outer loop
  vertex 1750.0000000000002 70.0000000000001 25.0
  vertex 1750.0000000000002 70.0000000000001 0.0
  vertex 2830.0 70.0000000000001 0.0
 endloop
endfacet
facet normal -0.0 -1.0 -0.0
 outer loop
  vertex 2830.0 70.0000000000001 25.0
  vertex 1750.0000000000002 70.0000000000001 25.0
  vertex 2830.0 70.0000000000001 0.0
 endloop
endfacet
facet normal 1.0 0.0 0.0
 outer loop
  vertex 2830.0 70.0000000000001 25.0
  vertex 2830.0 70.0000000000001 0.0
  vertex 2830.0 119.9999999999999 0.0
 endloop
endfacet
facet normal 1.0 0.0 0.0
 outer loop
  vertex 2830.0 119.9999999999999 25.0
  vertex 2830.0 70.0000000000001 25.0
  vertex 2830.0 119.9999999999999 0.0
 endloop
endfacet
facet normal 0.0 1.0 0.0
 outer loop
  vertex 2830.0 119.9999999999999 25.0
  vertex 2830.0 119.9999999999999 0.0
  vertex 1750.0000000000002 119.9999999999999 0.0
 endloop
endfacet
facet normal -0.0 1.0 0.0
 outer loop
  vertex 1750.0000000000002 119.9999999999999 25.0
  vertex 2830.0 119.9999999999999 25.0
  vertex 1750.0000000000002 119.9999999999999 0.0
 endloop
endfacet
facet normal -1.0 0.0 -0.0
 outer loop
  vertex 1750.0000000000002 119.9999999999999 25.0
  vertex 1750.0000000000002 119.9999999999999 0.0
  vertex 1750.0000000000002 70.0000000000001 0.0
 endloop
endfacet
facet normal -1.0 0.0 0.0
 outer loop
  vertex 1750.0000000000002 70.0000000000001 25.0
  vertex 1750.0000000000002 119.9999999999999 25.0
  vertex 1750.0000000000002 70.0000000000001 0.0
 endloop
endfacet
facet normal 0.0 0.0 -1.0
 outer loop
  vertex 2830.0 70.0000000000001 0.0
  vertex 1750.0000000000002 70.0000000000001 0.0
  vertex 2830.0 119.9999999999999 0.0
 endloop
endfacet
facet normal 0.0 0.0 -1.0
 outer loop
  vertex 1750.0000000000002 70.0000000000001 0.0
  vertex 1750.0000000000002 119.9999999999999 0.0
  vertex 2830.0 119.9999999999999 0.0
 endloop
endfacet
facet normal 0.0 0.0 1.0
 outer loop
  vertex 2830.0 119.9999999999999 25.0
  vertex 1750.0000000000002 70.0000000000001 25.0
  vertex 2830.0 70.0000000000001 25.0
 endloop
endfacet
facet normal 0.0 0.0 1.0
 outer loop
  vertex 2830.0 119.9999999999999 25.0
  vertex 1750.0000000000002 119.9999999999999 25.0
  vertex 1750.0000000000002 70.0000000000001 25.0
 endloop
endfacet
facet normal -1.0 0.0 0.0
 outer loop
  vertex 910.0009566231136 70.00000000001188 20.0
  vertex 910.0009566231136 1269.9999999999882 20.0
  vertex 910.0009566231136 1269.9999999999882 0.0
 endloop
endfacet
facet normal -1.0 0.0 0.0
 outer loop
  vertex 910.0009566231136 70.00000000001188 20.0
  vertex 910.0009566231136 1269.9999999999882 0.0
  vertex 910.0009566231136 70.00000000001188 0.0
 endloop
endfacet
facet normal 0.0 -1.0 0.0
 outer loop
  vertex 959.9990433769113 70.00000000001188 25.000000000014552
  vertex 910.0009566231136 70.00000000001188 20.0
  vertex 910.0009566231136 70.00000000001188 0.0
 endloop
endfacet
facet normal 0.0 -1.0 -0.0
 outer loop
  vertex 959.9990433769113 70.00000000001188 45.00000000001455
  vertex 910.0009566231136 70.00000000001188 20.0
  vertex 959.9990433769113 70.00000000001188 25.000000000014552
 endloop
endfacet
facet normal 1.0 0.0 0.0
 outer loop
  vertex 959.9990433769113 1269.9999999999882 45.00000000001455
  vertex 959.9990433769113 70.00000000001188 45.00000000001455
  vertex 959.9990433769113 70.00000000001188 25.000000000014552
 endloop
endfacet
facet normal 1.0 0.0 0.0
 outer loop
  vertex 959.9990433769113 1269.9999999999882 45.00000000001455
  vertex 959.9990433769113 70.00000000001188 25.000000000014552
  vertex 959.9990433769113 1269.9999999999882 25.000000000014552
 endloop
endfacet
facet normal 0.0 1.0 0.0
 outer loop
  vertex 910.0009566231136 1269.9999999999882 20.0
  vertex 959.9990433769113 1269.9999999999882 45.00000000001455
  vertex 959.9990433769113 1269.9999999999882 25.000000000014552
 endloop
endfacet
facet normal -0.0 1.0 0.0
 outer loop
  vertex 910.0009566231136 1269.9999999999882 20.0
  vertex 959.9990433769113 1269.9999999999882 25.000000000014552
  vertex 910.0009566231136 1269.9999999999882 0.0
 endloop
endfacet
facet normal -0.4472272859422796 0.0 0.8944203456477846
 outer loop
  vertex 959.9990433769113 1269.9999999999882 45.00000000001455
  vertex 910.0009566231136 1269.9999999999882 20.0
  vertex 910.0009566231136 70.00000000001188 20.0
 endloop
endfacet
facet normal -0.4472272859422796 0.0 0.8944203456477846
 outer loop
  vertex 959.9990433769113 1269.9999999999882 45.00000000001455
  vertex 910.0009566231136 70.00000000001188 20.0
  vertex 959.9990433769113 70.00000000001188 45.00000000001455
 endloop
endfacet
facet normal 0.4472272859422796 0.0 -0.8944203456477846
 outer loop
  vertex 910.0009566231136 70.00000000001188 0.0
  vertex 910.0009566231136 1269.9999999999882 0.0
  vertex 959.9990433769113 1269.9999999999882 25.000000000014552
 endloop
endfacet
facet normal 0.4472272859422796 0.0 -0.8944203456477846
 outer loop
  vertex 959.9990433769113 70.00000000001188 25.000000000014552
  vertex 910.0009566231136 70.00000000001188 0.0
  vertex 959.9990433769113 1269.9999999999882 25.000000000014552
 endloop
endfacet
facet normal -1.0 0.0 0.0
 outer loop
  vertex 959.9990433769087 339.9988846668453 20.0
  vertex 959.9990433769087 999.9988846668429 20.0
  vertex 959.9990433769087 999.9988846668429 0.0
 endloop
endfacet
facet normal -1.0 0.0 0.0
 outer loop
  vertex 959.9990433769087 339.9988846668453 20.0
  vertex 959.9990433769087 999.9988846668429 0.0
  vertex 959.9990433769087 339.9988846668453 0.0
 endloop
endfacet
facet normal -0.0 -1.0 0.0
 outer loop
  vertex 980.0009566231129 339.9988846668453 20.0
  vertex 959.9990433769087 339.9988846668453 20.0
  vertex 959.9990433769087 339.9988846668453 0.0
 endloop
endfacet
facet normal 0.0 -1.0 -0.0
 outer loop
  vertex 980.0009566231129 339.9988846668453 20.0
  vertex 959.9990433769087 339.9988846668453 0.0
  vertex 980.0009566231129 339.9988846668453 0.0
 endloop
endfacet
facet normal 1.0 0.0 0.0
 outer loop
  vertex 980.0009566231129 999.9988846668429 20.0
  vertex 980.0009566231129 339.9988846668453 20.0
  vertex 980.0009566231129 339.9988846668453 0.0
 endloop
endfacet
facet normal 1.0 0.0 0.0
 outer loop
  vertex 980.0009566231129 999.9988846668429 20.0
  vertex 980.0009566231129 339.9988846668453 0.0
  vertex 980.0009566231129 999.9988846668429 0.0
 endloop
endfacet
facet normal -0.0 1.0 0.0
 outer loop
  vertex 959.9990433769087 999.9988846668429 20.0
  vertex 980.0009566231129 999.9988846668429 20.0
  vertex 980.0009566231129 999.9988846668429 0.0
 endloop
endfacet
facet normal 0.0 1.0 0.0
 outer loop
  vertex 959.9990433769087 999.9988846668429 20.0
  vertex 980.0009566231129 999.9988846668429 0.0
  vertex 959.9990433769087 999.9988846668429 0.0
 endloop
endfacet
facet normal 0.0 0.0 1.0
 outer loop
  vertex 980.0009566231129 999.9988846668429 20.0
  vertex 959.9990433769087 999.9988846668429 20.0
  vertex 959.9990433769087 339.9988846668453 20.0
 endloop
endfacet
facet normal 0.0 0.0 1.0
 outer loop
  vertex 980.0009566231129 999.9988846668429 20.0
  vertex 959.9990433769087 339.9988846668453 20.0
  vertex 980.0009566231129 339.9988846668453 20.0
 endloop
endfacet
facet normal 0.0 0.0 -1.0
 outer loop
  vertex 959.9990433769087 339.9988846668453 0.0
  vertex 959.9990433769087 999.9988846668429 0.0
  vertex 980.0009566231129 999.9988846668429 0.0
 endloop
endfacet
facet normal 0.0 0.0 -1.0
 outer loop
  vertex 980.0009566231129 339.9988846668453 0.0
  vertex 959.9990433769087 339.9988846668453 0.0
  vertex 980.0009566231129 999.9988846668429 0.0
 endloop
endfacet
endsolid
