solid
facet normal -1.0 0.0 -0.0
 outer loop
  vertex 2850.0 1932.0000000000061 102435.0
  vertex 2850.0 1932.0000000000061 99840.0
  vertex 2850.0 0.0 99840.0
 endloop
endfacet
facet normal -1.0 0.0 0.0
 outer loop
  vertex 2850.0 0.0 102435.0
  vertex 2850.0 1932.0000000000061 102435.0
  vertex 2850.0 0.0 99840.0
 endloop
endfacet
facet normal 0.0 -1.0 0.0
 outer loop
  vertex 2850.0 0.0 102435.0
  vertex 2850.0 0.0 99840.0
  vertex 2899.9999999999995 0.0 99840.0
 endloop
endfacet
facet normal -0.0 -1.0 -0.0
 outer loop
  vertex 2899.9999999999995 0.0 102435.0
  vertex 2850.0 0.0 102435.0
  vertex 2899.9999999999995 0.0 99840.0
 endloop
endfacet
facet normal 1.0 0.0 0.0
 outer loop
  vertex 2899.9999999999995 0.0 102435.0
  vertex 2899.9999999999995 0.0 99840.0
  vertex 2899.9999999999995 1932.0000000000061 99840.0
 endloop
endfacet
facet normal 1.0 0.0 0.0
 outer loop
  vertex 2899.9999999999995 1932.0000000000061 102435.0
  vertex 2899.9999999999995 0.0 102435.0
  vertex 2899.9999999999995 1932.0000000000061 99840.0
 endloop
endfacet
facet normal 0.0 1.0 0.0
 outer loop
  vertex 2899.9999999999995 1932.0000000000061 102435.0
  vertex 2899.9999999999995 1932.0000000000061 99840.0
  vertex 2850.0 1932.0000000000061 99840.0
 endloop
endfacet
facet normal -0.0 1.0 0.0
 outer loop
  vertex 2850.0 1932.0000000000061 102435.0
  vertex 2899.9999999999995 1932.0000000000061 102435.0
  vertex 2850.0 1932.0000000000061 99840.0
 endloop
endfacet
facet normal 0.0 0.0 -1.0
 outer loop
  vertex 2899.9999999999995 0.0 99840.0
  vertex 2850.0 0.0 99840.0
  vertex 2850.0 1932.0000000000061 99840.0
 endloop
endfacet
facet normal -0.0 -0.0 -1.0
 outer loop
  vertex 2899.9999999999995 1932.0000000000061 99840.0
  vertex 2899.9999999999995 0.0 99840.0
  vertex 2850.0 1932.0000000000061 99840.0
 endloop
endfacet
facet normal 0.0 0.0 1.0
 outer loop
  vertex 2850.0 1932.0000000000061 102435.0
  vertex 2850.0 0.0 102435.0
  vertex 2899.9999999999995 0.0 102435.0
 endloop
endfacet
facet normal -0.0 0.0 1.0
 outer loop
  vertex 2850.0 1932.0000000000061 102435.0
  vertex 2899.9999999999995 0.0 102435.0
  vertex 2899.9999999999995 1932.0000000000061 102435.0
 endloop
endfacet
endsolid
