solid
facet normal 0.0 0.0 -1.0
 outer loop
  vertex -3.469446951953614e-15 -3.3306690738754696e-12 99840.0
  vertex -3.469446951953614e-15 1290.0 99840.0
  vertex 50.0 1290.0 99840.0
 endloop
endfacet
facet normal 0.0 0.0 -1.0
 outer loop
  vertex -3.469446951953614e-15 -3.3306690738754696e-12 99840.0
  vertex 50.0 1290.0 99840.0
  vertex 50.0 -3.3306690738754696e-12 99840.0
 endloop
endfacet
facet normal 0.0 -1.0 0.0
 outer loop
  vertex -3.469446951953614e-15 -3.3306690738754696e-12 102435.0
  vertex -3.469446951953614e-15 -3.3306690738754696e-12 99840.0
  vertex 50.0 -3.3306690738754696e-12 99840.0
 endloop
endfacet
facet normal 0.0 -1.0 0.0
 outer loop
  vertex -3.469446951953614e-15 -3.3306690738754696e-12 102435.0
  vertex 50.0 -3.3306690738754696e-12 99840.0
  vertex 50.0 -3.3306690738754696e-12 102435.0
 endloop
endfacet
facet normal 0.0 0.0 1.0
 outer loop
  vertex 50.00000000000009 50.00000000000004 102435.0
  vertex 9.020562075079397e-14 50.00000000000004 102435.0
  vertex -3.469446951953614e-15 -3.3306690738754696e-12 102435.0
 endloop
endfacet
facet normal 0.0 -0.0 1.0
 outer loop
  vertex 50.0 -3.3306690738754696e-12 102435.0
  vertex 50.00000000000009 50.00000000000004 102435.0
  vertex -3.469446951953614e-15 -3.3306690738754696e-12 102435.0
 endloop
endfacet
facet normal 0.0 1.0 0.0
 outer loop
  vertex 9.020562075079397e-14 50.00000000000004 101030.0
  vertex 9.020562075079397e-14 50.00000000000004 102435.0
  vertex 50.00000000000009 50.00000000000004 102435.0
 endloop
endfacet
facet normal 0.0 1.0 0.0
 outer loop
  vertex 9.020562075079397e-14 50.00000000000004 101030.0
  vertex 50.00000000000009 50.00000000000004 102435.0
  vertex 50.00000000000009 50.00000000000004 101030.0
 endloop
endfacet
facet normal 0.0 0.0 1.0
 outer loop
  vertex 9.020562075079397e-14 789.9999999999998 101030.0
  vertex 9.020562075079397e-14 50.00000000000004 101030.0
  vertex 50.00000000000009 50.00000000000004 101030.0
 endloop
endfacet
facet normal -0.0 0.0 1.0
 outer loop
  vertex 9.020562075079397e-14 789.9999999999998 101030.0
  vertex 50.00000000000009 50.00000000000004 101030.0
  vertex 50.00000000000009 789.9999999999998 101030.0
 endloop
endfacet
facet normal 0.0 -1.0 0.0
 outer loop
  vertex 9.020562075079397e-14 789.9999999999998 102435.0
  vertex 9.020562075079397e-14 789.9999999999998 101030.0
  vertex 50.00000000000009 789.9999999999998 101030.0
 endloop
endfacet
facet normal 0.0 -1.0 0.0
 outer loop
  vertex 9.020562075079397e-14 789.9999999999998 102435.0
  vertex 50.00000000000009 789.9999999999998 101030.0
  vertex 50.00000000000009 789.9999999999998 102435.0
 endloop
endfacet
facet normal 0.0 0.0 1.0
 outer loop
  vertex 50.0 1290.0 102435.0
  vertex -3.469446951953614e-15 1290.0 102435.0
  vertex 9.020562075079397e-14 789.9999999999998 102435.0
 endloop
endfacet
facet normal 0.0 0.0 1.0
 outer loop
  vertex 50.00000000000009 789.9999999999998 102435.0
  vertex 50.0 1290.0 102435.0
  vertex 9.020562075079397e-14 789.9999999999998 102435.0
 endloop
endfacet
facet normal 0.0 1.0 0.0
 outer loop
  vertex 50.0 1290.0 99840.0
  vertex -3.469446951953614e-15 1290.0 99840.0
  vertex -3.469446951953614e-15 1290.0 102435.0
 endloop
endfacet
facet normal 0.0 1.0 0.0
 outer loop
  vertex 50.0 1290.0 102435.0
  vertex 50.0 1290.0 99840.0
  vertex -3.469446951953614e-15 1290.0 102435.0
 endloop
endfacet
facet normal -1.0 -1.8735013540549507e-16 -0.0
 outer loop
  vertex 9.020562075079397e-14 789.9999999999998 102435.0
  vertex -3.469446951953614e-15 1290.0 102435.0
  vertex 9.020562075079397e-14 789.9999999999998 101030.0
 endloop
endfacet
facet normal -1.0 -1.873501354054951e-16 0.0
 outer loop
  vertex 9.020562075079397e-14 789.9999999999998 101030.0
  vertex -3.469446951953614e-15 1290.0 102435.0
  vertex -3.469446951953614e-15 1290.0 99840.0
 endloop
endfacet
facet normal -1.0 1.873501354054825e-15 0.0
 outer loop
  vertex -3.469446951953614e-15 -3.3306690738754696e-12 102435.0
  vertex 9.020562075079397e-14 50.00000000000004 102435.0
  vertex 9.020562075079397e-14 50.00000000000004 101030.0
 endloop
endfacet
facet normal -1.0 0.0 7.871854428802317e-17
 outer loop
  vertex 9.020562075079397e-14 50.00000000000004 101030.0
  vertex 9.020562075079397e-14 789.9999999999998 101030.0
  vertex -3.469446951953614e-15 -3.3306690738754696e-12 99840.0
 endloop
endfacet
facet normal -1.0 0.0 7.87185442880232e-17
 outer loop
  vertex 9.020562075079397e-14 789.9999999999998 101030.0
  vertex -3.469446951953614e-15 1290.0 99840.0
  vertex -3.469446951953614e-15 -3.3306690738754696e-12 99840.0
 endloop
endfacet
facet normal -1.0 1.873501354054825e-15 0.0
 outer loop
  vertex 9.020562075079397e-14 50.00000000000004 101030.0
  vertex -3.469446951953614e-15 -3.3306690738754696e-12 99840.0
  vertex -3.469446951953614e-15 -3.3306690738754696e-12 102435.0
 endloop
endfacet
facet normal 1.0 1.8474111129762597e-16 -0.0
 outer loop
  vertex 50.00000000000009 789.9999999999998 101030.0
  vertex 50.0 1290.0 102435.0
  vertex 50.00000000000009 789.9999999999998 102435.0
 endloop
endfacet
facet normal 1.0 1.8474111129762594e-16 -0.0
 outer loop
  vertex 50.0 1290.0 99840.0
  vertex 50.0 1290.0 102435.0
  vertex 50.00000000000009 789.9999999999998 101030.0
 endloop
endfacet
facet normal 1.0 -1.847411112976136e-15 0.0
 outer loop
  vertex 50.00000000000009 50.00000000000004 101030.0
  vertex 50.00000000000009 50.00000000000004 102435.0
  vertex 50.0 -3.3306690738754696e-12 102435.0
 endloop
endfacet
facet normal 1.0 0.0 -7.762231567127146e-17
 outer loop
  vertex 50.0 -3.3306690738754696e-12 99840.0
  vertex 50.00000000000009 789.9999999999998 101030.0
  vertex 50.00000000000009 50.00000000000004 101030.0
 endloop
endfacet
facet normal 1.0 0.0 -7.762231567127146e-17
 outer loop
  vertex 50.0 -3.3306690738754696e-12 99840.0
  vertex 50.0 1290.0 99840.0
  vertex 50.00000000000009 789.9999999999998 101030.0
 endloop
endfacet
facet normal 1.0 -1.847411112976136e-15 0.0
 outer loop
  vertex 50.0 -3.3306690738754696e-12 102435.0
  vertex 50.0 -3.3306690738754696e-12 99840.0
  vertex 50.00000000000009 50.00000000000004 101030.0
 endloop
endfacet
endsolid
