solid
facet normal 0.0 -1.0 0.0
 outer loop
  vertex 959.9999999999995 1882.0000000000002 102435.0
  vertex 959.9999999999995 1882.0000000000002 99840.0
  vertex 2850.0 1882.0000000000002 99840.0
 endloop
endfacet
facet normal -0.0 -1.0 -0.0
 outer loop
  vertex 2850.0 1882.0000000000002 102435.0
  vertex 959.9999999999995 1882.0000000000002 102435.0
  vertex 2850.0 1882.0000000000002 99840.0
 endloop
endfacet
facet normal 1.0 0.0 0.0
 outer loop
  vertex 2850.0 1882.0000000000002 102435.0
  vertex 2850.0 1882.0000000000002 99840.0
  vertex 2850.0 1932.0000000000002 99840.0
 endloop
endfacet
facet normal 1.0 0.0 0.0
 outer loop
  vertex 2850.0 1932.0000000000002 102435.0
  vertex 2850.0 1882.0000000000002 102435.0
  vertex 2850.0 1932.0000000000002 99840.0
 endloop
endfacet
facet normal 0.0 1.0 0.0
 outer loop
  vertex 2850.0 1932.0000000000002 102435.0
  vertex 2850.0 1932.0000000000002 99840.0
  vertex 959.9999999999995 1932.0000000000002 99840.0
 endloop
endfacet
facet normal -0.0 1.0 0.0
 outer loop
  vertex 959.9999999999995 1932.0000000000002 102435.0
  vertex 2850.0 1932.0000000000002 102435.0
  vertex 959.9999999999995 1932.0000000000002 99840.0
 endloop
endfacet
facet normal -1.0 0.0 -0.0
 outer loop
  vertex 959.9999999999995 1932.0000000000002 102435.0
  vertex 959.9999999999995 1932.0000000000002 99840.0
  vertex 959.9999999999995 1882.0000000000002 99840.0
 endloop
endfacet
facet normal -1.0 0.0 0.0
 outer loop
  vertex 959.9999999999995 1882.0000000000002 102435.0
  vertex 959.9999999999995 1932.0000000000002 102435.0
  vertex 959.9999999999995 1882.0000000000002 99840.0
 endloop
endfacet
facet normal 0.0 -0.0 -1.0
 outer loop
  vertex 2850.0 1932.0000000000002 99840.0
  vertex 2850.0 1882.0000000000002 99840.0
  vertex 959.9999999999995 1882.0000000000002 99840.0
 endloop
endfacet
facet normal 0.0 0.0 -1.0
 outer loop
  vertex 959.9999999999995 1932.0000000000002 99840.0
  vertex 2850.0 1932.0000000000002 99840.0
  vertex 959.9999999999995 1882.0000000000002 99840.0
 endloop
endfacet
facet normal 0.0 0.0 1.0
 outer loop
  vertex 959.9999999999995 1882.0000000000002 102435.0
  vertex 2850.0 1882.0000000000002 102435.0
  vertex 2850.0 1932.0000000000002 102435.0
 endloop
endfacet
facet normal 0.0 0.0 1.0
 outer loop
  vertex 959.9999999999995 1882.0000000000002 102435.0
  vertex 2850.0 1932.0000000000002 102435.0
  vertex 959.9999999999995 1932.0000000000002 102435.0
 endloop
endfacet
endsolid
