solid
facet normal 1.0 0.0 0.0
 outer loop
  vertex 960.0 1290.0 99840.0
  vertex 960.0 1339.9999999999998 99840.0
  vertex 960.0 1339.9999999999998 102435.0
 endloop
endfacet
facet normal 1.0 -0.0 0.0
 outer loop
  vertex 960.0 1290.0 102435.0
  vertex 960.0 1290.0 99840.0
  vertex 960.0 1339.9999999999998 102435.0
 endloop
endfacet
facet normal -1.0 0.0 -0.0
 outer loop
  vertex -6.661338147750939e-13 1339.9999999999998 102435.0
  vertex -6.661338147750939e-13 1339.9999999999998 99840.0
  vertex -6.661338147750939e-13 1290.0 99840.0
 endloop
endfacet
facet normal -1.0 -0.0 0.0
 outer loop
  vertex -6.661338147750939e-13 1339.9999999999998 102435.0
  vertex -6.661338147750939e-13 1290.0 99840.0
  vertex -6.661338147750939e-13 1290.0 102435.0
 endloop
endfacet
facet normal 0.0 0.0 -1.0
 outer loop
  vertex -6.661338147750939e-13 1339.9999999999998 99840.0
  vertex 960.0 1339.9999999999998 99840.0
  vertex 960.0 1290.0 99840.0
 endloop
endfacet
facet normal 0.0 0.0 -1.0
 outer loop
  vertex -6.661338147750939e-13 1339.9999999999998 99840.0
  vertex 960.0 1290.0 99840.0
  vertex -6.661338147750939e-13 1290.0 99840.0
 endloop
endfacet
facet normal 0.0 -0.0 1.0
 outer loop
  vertex 960.0 1290.0 102435.0
  vertex 960.0 1339.9999999999998 102435.0
  vertex -6.661338147750939e-13 1339.9999999999998 102435.0
 endloop
endfacet
facet normal 0.0 0.0 1.0
 outer loop
  vertex -6.661338147750939e-13 1290.0 102435.0
  vertex 960.0 1290.0 102435.0
  vertex -6.661338147750939e-13 1339.9999999999998 102435.0
 endloop
endfacet
facet normal -1.0 0.0 0.0
 outer loop
  vertex 875.0 1290.0 101110.0
  vertex 875.0 1339.9999999999998 101110.0
  vertex 875.0 1339.9999999999998 100780.0
 endloop
endfacet
facet normal -1.0 0.0 0.0
 outer loop
  vertex 875.0 1290.0 100780.0
  vertex 875.0 1290.0 101110.0
  vertex 875.0 1339.9999999999998 100780.0
 endloop
endfacet
facet normal 0.0 -0.0 1.0
 outer loop
  vertex 875.0 1290.0 100780.0
  vertex 875.0 1339.9999999999998 100780.0
  vertex 574.9999999999999 1339.9999999999998 100780.0
 endloop
endfacet
facet normal 0.0 0.0 1.0
 outer loop
  vertex 574.9999999999999 1290.0 100780.0
  vertex 875.0 1290.0 100780.0
  vertex 574.9999999999999 1339.9999999999998 100780.0
 endloop
endfacet
facet normal 1.0 0.0 0.0
 outer loop
  vertex 574.9999999999999 1290.0 100780.0
  vertex 574.9999999999999 1339.9999999999998 100780.0
  vertex 574.9999999999999 1339.9999999999998 101110.0
 endloop
endfacet
facet normal 1.0 -0.0 0.0
 outer loop
  vertex 574.9999999999999 1290.0 101110.0
  vertex 574.9999999999999 1290.0 100780.0
  vertex 574.9999999999999 1339.9999999999998 101110.0
 endloop
endfacet
facet normal 0.0 0.0 -1.0
 outer loop
  vertex 574.9999999999999 1290.0 101110.0
  vertex 574.9999999999999 1339.9999999999998 101110.0
  vertex 875.0 1339.9999999999998 101110.0
 endloop
endfacet
facet normal 0.0 0.0 -1.0
 outer loop
  vertex 875.0 1290.0 101110.0
  vertex 574.9999999999999 1290.0 101110.0
  vertex 875.0 1339.9999999999998 101110.0
 endloop
endfacet
facet normal 0.0 1.0 -0.0
 outer loop
  vertex 574.9999999999999 1339.9999999999998 101110.0
  vertex -6.661338147750939e-13 1339.9999999999998 102435.0
  vertex 960.0 1339.9999999999998 102435.0
 endloop
endfacet
facet normal 0.0 1.0 0.0
 outer loop
  vertex 574.9999999999999 1339.9999999999998 101110.0
  vertex 960.0 1339.9999999999998 102435.0
  vertex 875.0 1339.9999999999998 101110.0
 endloop
endfacet
facet normal 0.0 1.0 0.0
 outer loop
  vertex 960.0 1339.9999999999998 99840.0
  vertex 574.9999999999999 1339.9999999999998 100780.0
  vertex 875.0 1339.9999999999998 100780.0
 endloop
endfacet
facet normal 0.0 1.0 0.0
 outer loop
  vertex 960.0 1339.9999999999998 99840.0
  vertex 875.0 1339.9999999999998 100780.0
  vertex 875.0 1339.9999999999998 101110.0
 endloop
endfacet
facet normal 0.0 1.0 -0.0
 outer loop
  vertex 960.0 1339.9999999999998 99840.0
  vertex 875.0 1339.9999999999998 101110.0
  vertex 960.0 1339.9999999999998 102435.0
 endloop
endfacet
facet normal 0.0 1.0 0.0
 outer loop
  vertex -6.661338147750939e-13 1339.9999999999998 99840.0
  vertex 574.9999999999999 1339.9999999999998 101110.0
  vertex 574.9999999999999 1339.9999999999998 100780.0
 endloop
endfacet
facet normal 0.0 1.0 0.0
 outer loop
  vertex -6.661338147750939e-13 1339.9999999999998 99840.0
  vertex 574.9999999999999 1339.9999999999998 100780.0
  vertex 960.0 1339.9999999999998 99840.0
 endloop
endfacet
facet normal 0.0 1.0 0.0
 outer loop
  vertex -6.661338147750939e-13 1339.9999999999998 99840.0
  vertex -6.661338147750939e-13 1339.9999999999998 102435.0
  vertex 574.9999999999999 1339.9999999999998 101110.0
 endloop
endfacet
facet normal -0.0 -1.0 0.0
 outer loop
  vertex 960.0 1290.0 102435.0
  vertex -6.661338147750939e-13 1290.0 102435.0
  vertex 574.9999999999999 1290.0 101110.0
 endloop
endfacet
facet normal 0.0 -1.0 0.0
 outer loop
  vertex 875.0 1290.0 101110.0
  vertex 960.0 1290.0 102435.0
  vertex 574.9999999999999 1290.0 101110.0
 endloop
endfacet
facet normal -0.0 -1.0 -0.0
 outer loop
  vertex 875.0 1290.0 100780.0
  vertex 574.9999999999999 1290.0 100780.0
  vertex 960.0 1290.0 99840.0
 endloop
endfacet
facet normal 0.0 -1.0 0.0
 outer loop
  vertex 875.0 1290.0 101110.0
  vertex 875.0 1290.0 100780.0
  vertex 960.0 1290.0 99840.0
 endloop
endfacet
facet normal 0.0 -1.0 -0.0
 outer loop
  vertex 960.0 1290.0 102435.0
  vertex 875.0 1290.0 101110.0
  vertex 960.0 1290.0 99840.0
 endloop
endfacet
facet normal -0.0 -1.0 0.0
 outer loop
  vertex 574.9999999999999 1290.0 100780.0
  vertex 574.9999999999999 1290.0 101110.0
  vertex -6.661338147750939e-13 1290.0 99840.0
 endloop
endfacet
facet normal 0.0 -1.0 0.0
 outer loop
  vertex 960.0 1290.0 99840.0
  vertex 574.9999999999999 1290.0 100780.0
  vertex -6.661338147750939e-13 1290.0 99840.0
 endloop
endfacet
facet normal -0.0 -1.0 0.0
 outer loop
  vertex 574.9999999999999 1290.0 101110.0
  vertex -6.661338147750939e-13 1290.0 102435.0
  vertex -6.661338147750939e-13 1290.0 99840.0
 endloop
endfacet
endsolid
