solid
facet normal 1.0 0.0 0.0
 outer loop
  vertex 1010.0 1289.9999999999968 102435.0
  vertex 1010.0 1289.9999999999968 99840.0
  vertex 1010.0 1882.0000000000002 99840.0
 endloop
endfacet
facet normal 1.0 0.0 0.0
 outer loop
  vertex 1010.0 1882.0000000000002 102435.0
  vertex 1010.0 1289.9999999999968 102435.0
  vertex 1010.0 1882.0000000000002 99840.0
 endloop
endfacet
facet normal 0.0 1.0 0.0
 outer loop
  vertex 1010.0 1882.0000000000002 102435.0
  vertex 1010.0 1882.0000000000002 99840.0
  vertex 960.0 1882.0000000000002 99840.0
 endloop
endfacet
facet normal -0.0 1.0 0.0
 outer loop
  vertex 960.0 1882.0000000000002 102435.0
  vertex 1010.0 1882.0000000000002 102435.0
  vertex 960.0 1882.0000000000002 99840.0
 endloop
endfacet
facet normal -1.0 0.0 -0.0
 outer loop
  vertex 960.0 1882.0000000000002 102435.0
  vertex 960.0 1882.0000000000002 99840.0
  vertex 960.0 1289.9999999999968 99840.0
 endloop
endfacet
facet normal -1.0 0.0 0.0
 outer loop
  vertex 960.0 1289.9999999999968 102435.0
  vertex 960.0 1882.0000000000002 102435.0
  vertex 960.0 1289.9999999999968 99840.0
 endloop
endfacet
facet normal 0.0 -1.0 0.0
 outer loop
  vertex 960.0 1289.9999999999968 102435.0
  vertex 960.0 1289.9999999999968 99840.0
  vertex 1010.0 1289.9999999999968 99840.0
 endloop
endfacet
facet normal -0.0 -1.0 -0.0
 outer loop
  vertex 1010.0 1289.9999999999968 102435.0
  vertex 960.0 1289.9999999999968 102435.0
  vertex 1010.0 1289.9999999999968 99840.0
 endloop
endfacet
facet normal 0.0 0.0 -1.0
 outer loop
  vertex 960.0 1882.0000000000002 99840.0
  vertex 1010.0 1882.0000000000002 99840.0
  vertex 1010.0 1289.9999999999968 99840.0
 endloop
endfacet
facet normal 0.0 0.0 -1.0
 outer loop
  vertex 960.0 1289.9999999999968 99840.0
  vertex 960.0 1882.0000000000002 99840.0
  vertex 1010.0 1289.9999999999968 99840.0
 endloop
endfacet
facet normal 0.0 -0.0 1.0
 outer loop
  vertex 1010.0 1289.9999999999968 102435.0
  vertex 1010.0 1882.0000000000002 102435.0
  vertex 960.0 1882.0000000000002 102435.0
 endloop
endfacet
facet normal 0.0 0.0 1.0
 outer loop
  vertex 1010.0 1289.9999999999968 102435.0
  vertex 960.0 1882.0000000000002 102435.0
  vertex 960.0 1289.9999999999968 102435.0
 endloop
endfacet
endsolid
